<svg width="1322" height="545" viewBox="0 0 1322 545" fill="none" xmlns="http://www.w3.org/2000/svg">
<path fill-rule="evenodd" clip-rule="evenodd" d="M168.036 40C168.029 40 106.48 50.8789 90.3089 119.359C70.3944 121.825 52.5512 123.891 42.0761 124.802C15.304 127.387 9.87415 133.6 6.64136 162.734C3.40859 191.86 4.0522 228.111 4.0522 228.111C3.72669 249.469 12.7518 258 38.4587 258C42.9713 258 48.0017 257.741 53.5869 257.237C90.9598 253.742 179.931 247.01 202.435 244.159C224.806 241.315 225.065 232.636 223.385 208.686C221.314 179.433 213.813 123.765 213.813 123.765C213.813 123.765 214.826 109.939 186.086 109.939C183.978 109.939 181.722 110.013 179.288 110.168C172.563 110.687 164.544 111.339 155.749 112.242C149.927 101.363 136.219 67.8378 168.036 40Z" fill="white"/>
<path fill-rule="evenodd" clip-rule="evenodd" d="M154.251 48.0158C154.11 48.1865 153.969 48.3572 153.835 48.5205L150.855 53.0626C147.23 59.1633 144.509 66.0359 143.338 73.042C142.174 80.1817 142.559 87.5738 143.99 94.4464C145.413 101.452 147.749 108.073 150.989 114.3C151.834 115.762 153.257 116.645 154.918 116.645C155.036 116.645 155.148 116.645 155.259 116.637L171.332 115.205C173.927 114.953 176.648 114.693 179.242 114.433C181.311 114.433 183.387 114.262 185.462 114.262C185.981 114.262 186.493 114.277 187.012 114.3C192.068 114.3 197.124 114.819 201.528 116.378C203.737 117.023 205.68 118.196 207.103 119.487C207.363 119.881 207.748 120.14 208.008 120.526C208.267 120.92 208.527 121.306 208.786 121.699C208.92 122.085 209.179 122.471 209.179 122.864C209.305 122.99 209.305 123.25 209.305 123.384C209.305 123.51 209.439 123.51 209.439 123.644V124.423L214.621 157.635C216.304 168.664 217.987 179.819 219.417 190.848C220.196 196.429 220.841 202.003 221.486 207.584C222.005 213.165 222.524 218.746 222.524 224.194C222.398 227.044 222.264 229.767 221.486 232.365C220.715 234.963 219.158 237.293 217.082 238.985C215.006 240.67 212.419 241.709 209.698 242.488C208.401 243 206.977 243.134 205.68 243.52L201.528 244.173C169.13 247.802 136.472 248.975 103.941 250.66C95.7783 251.179 87.6083 251.565 79.4458 252.085L67.1315 252.864L54.9508 253.769C48.8344 254.267 42.7181 254.682 36.7129 254.682C34.8298 254.682 32.9616 254.645 31.1007 254.549C29.1583 254.422 27.2159 254.163 25.3995 253.903C24.3616 253.769 23.4571 253.509 22.5526 253.257L21.2552 252.997L19.9578 252.604C16.4585 251.565 13.3448 249.88 11.1429 247.416C8.94099 244.819 7.51754 241.575 6.7391 237.946C6.7391 237.427 6.60566 237.033 6.47962 236.514L6.34617 235.089C6.22014 234.183 6.0867 233.27 5.96065 232.239L5.70118 226.264C5.44169 218.093 5.31566 209.921 5.31566 201.876C5.44169 185.526 5.70118 169.183 8.16255 153.093C8.81496 149.204 9.71944 145.182 11.1429 141.545C12.5737 137.916 14.7756 134.672 18.0154 132.461C21.1218 130.256 24.8806 128.958 28.7728 128.052C32.6576 127.147 36.6758 126.753 40.8201 126.367C57.0266 124.683 73.3517 123.25 89.5507 121.699C90.4626 121.565 91.2411 121.046 91.3671 120.14L91.5005 120.007C93.8285 110.67 97.4612 101.712 101.998 93.4147C106.662 85.1098 112.363 77.4505 119.235 70.8377C122.601 67.4608 126.101 64.3511 129.859 61.4937C133.752 58.77 137.77 56.1798 141.781 53.8419C145.814 51.697 149.973 49.6709 154.251 48.0158ZM167.225 36C167.002 36 166.765 36.0223 166.535 36.0668C163.814 36.7125 161.486 37.3656 159.018 38.1449C156.556 38.9242 154.095 39.8296 151.76 40.7351C147.096 42.6796 142.559 44.8913 138.155 47.3553C129.34 52.4169 121.304 58.77 114.305 66.0359C107.307 73.3018 101.479 81.7329 96.9422 90.691C92.7387 99.3522 89.5952 108.37 87.4007 117.625C71.7503 119.636 56.0925 121.758 40.4346 123.644C36.4164 124.163 32.2721 124.683 28.2538 125.588C24.2356 126.494 20.0839 127.926 16.5846 130.516C12.9592 132.98 10.3644 136.743 8.81496 140.639C7.12462 144.528 6.22014 148.551 5.44169 152.707C4.01826 160.745 3.23981 168.924 2.46137 177.095C1.68292 185.266 1.16396 193.445 0.778451 201.743C0.385518 209.921 0.12603 218.093 0 226.264V232.499C0 233.53 0.12603 234.703 0.12603 235.742L0.259488 237.427C0.385518 237.946 0.518963 238.466 0.518963 239.111C1.29741 243.394 2.72085 248.062 5.96065 251.825C9.07443 255.588 13.3448 257.925 17.6225 259.35L19.3128 259.87L20.8623 260.263C21.9002 260.516 23.0716 260.775 24.1021 261.035C26.3114 261.295 28.3799 261.688 30.5817 261.688L33.6955 261.948H36.9353C37.5433 261.985 38.1512 262 38.7591 262C40.227 262 41.6875 261.911 43.1555 261.814C45.2313 261.814 47.3072 261.688 49.3756 261.429C51.4515 261.295 53.5273 261.169 55.5957 260.909C71.8022 259.35 88.0013 257.666 104.2 255.721L152.931 250.266C161.093 249.235 169.256 248.455 177.293 247.542C185.462 246.763 193.625 245.991 201.662 244.952L205.806 244.299C207.103 244.039 208.527 243.78 209.958 243.394C212.678 242.614 215.266 241.575 217.601 239.757C219.936 238.072 221.619 235.482 222.524 232.751C223.436 229.901 223.821 227.044 223.955 224.32C224.214 212.905 223.302 201.743 222.657 190.588C221.879 179.299 220.974 168.144 219.936 156.982C219.025 145.701 217.861 134.539 216.697 123.384C216.697 123.287 216.697 123.206 216.697 123.124C216.697 122.864 216.697 122.605 216.563 122.345C216.563 121.959 216.437 121.439 216.304 120.92C216.178 120.007 215.785 119.228 215.399 118.322C215.006 117.543 214.621 116.764 214.102 115.984C213.583 115.339 212.938 114.693 212.419 114.04C209.958 111.576 207.103 110.017 204.249 108.978C198.548 106.648 192.721 106.128 187.012 105.995C186.471 105.972 185.922 105.958 185.366 105.958C183.157 105.958 180.896 106.128 178.723 106.128C175.995 106.254 173.274 106.514 170.553 106.774L157.379 107.724C152.501 97.2963 150.084 85.4957 151.76 74.467C152.671 68.3737 154.747 62.5328 157.854 57.2114L160.315 53.3224C161.227 52.1572 162.257 50.9845 163.295 49.6857C163.814 49.1736 164.207 48.5205 164.726 48.001L166.409 46.3162L169.775 42.9393L170.034 42.6796C170.946 41.7741 171.465 40.4753 171.206 39.1765C170.746 37.3359 169.056 36 167.225 36Z" fill="#1A1A1A"/>
<path fill-rule="evenodd" clip-rule="evenodd" d="M922.844 206C917.626 206 911.94 207.617 905.792 211.487C867.394 235.469 892.645 289.33 938.313 327.446C938.313 327.446 928.741 346.445 900.37 347.83C900.37 347.83 914.335 355 934.593 355C953.307 355 977.391 348.884 1000.82 325.359C1049.71 276.362 1062.97 230.141 1020.41 211.719C1013.51 208.717 1007.43 207.438 1002.08 207.438C971.065 207.438 964.607 250.412 964.607 250.412C964.607 250.412 950.134 206 922.844 206Z" fill="white"/>
<path fill-rule="evenodd" clip-rule="evenodd" d="M922.931 208.244C925.369 208.244 927.82 208.656 930.197 209.532C934.263 210.814 937.976 213.25 941.343 216.151C944.83 219.052 947.733 222.53 950.516 226.129C953.186 229.846 955.624 233.789 957.949 237.852C959.111 239.824 960.041 241.915 961.084 243.999C961.662 245.048 962.127 246.09 962.592 247.133L963.289 248.759L963.641 249.456L963.874 249.921V250.153C963.874 250.153 963.987 250.266 964.106 250.386C964.219 250.498 964.339 250.498 964.339 250.618C964.452 250.498 964.684 250.266 964.684 250.153V249.921L964.797 249.689L964.917 248.992L965.262 247.717C965.495 246.9 965.727 246.09 965.96 245.281C966.425 243.654 967.009 242.028 967.587 240.401C968.749 237.155 970.144 234.022 971.652 231.001C974.787 225.086 978.852 219.517 984.073 215.567C986.63 213.595 989.414 211.969 992.436 211.046C995.458 209.997 998.706 209.652 1001.84 209.652L1004.28 209.765L1006.6 210.116L1007.88 210.349L1009.04 210.581L1011.36 211.159C1012.99 211.736 1014.49 212.088 1016.01 212.785C1017.52 213.363 1019.14 213.947 1020.53 214.757L1022.74 215.799C1023.44 216.151 1024.13 216.616 1024.83 217.08C1026.34 217.771 1027.62 218.82 1028.9 219.749C1031.45 221.721 1033.89 223.805 1035.86 226.248C1037.72 228.684 1039.34 231.353 1040.51 234.254C1041.56 237.155 1042.13 240.169 1042.48 243.302C1042.71 246.323 1042.48 249.569 1042.13 252.702C1041.56 255.836 1040.86 259.089 1039.81 262.222C1037.84 268.369 1034.93 274.404 1031.69 280.206C1024.95 291.817 1016.71 302.724 1007.65 312.821C1003.12 317.926 998.361 322.911 993.479 327.439C988.49 331.966 983.143 336.029 977.457 339.508C971.765 342.993 965.727 346.007 959.457 348.211C953.074 350.421 946.571 351.809 939.835 352.506C937.199 352.731 934.568 352.858 931.931 352.858C927.833 352.858 923.735 352.565 919.63 351.928C916.262 351.463 913.014 350.766 909.646 349.957C908.072 349.505 906.491 349.027 904.943 348.496C905.076 348.476 905.216 348.463 905.349 348.443L908.138 347.865L909.646 347.633L911.041 347.288L913.824 346.471C914.754 346.239 915.565 345.894 916.494 345.542C917.424 345.197 918.354 344.964 919.165 344.5C920.095 344.035 921.024 343.69 921.835 343.225C925.203 341.479 928.457 339.275 931.36 336.839C934.263 334.17 936.933 331.389 938.905 327.903C939.138 327.439 939.025 326.861 938.673 326.509L938.56 326.396C931.592 320.362 924.97 313.863 918.932 306.786C913.014 299.823 907.441 292.394 902.791 284.501C900.473 280.558 898.268 276.608 896.521 272.432C894.668 268.256 892.921 264.074 891.765 259.786C890.603 255.491 889.786 251.083 889.56 246.788C889.327 242.373 889.673 238.085 890.835 234.022C893.04 225.783 898.733 218.82 906.046 213.947C909.646 211.504 913.592 209.652 917.77 208.835C919.464 208.45 921.191 208.244 922.931 208.244ZM921.616 203C920.008 203 918.407 203.126 916.846 203.385C911.732 204.314 907.089 206.399 902.911 208.955C898.733 211.504 894.781 214.87 891.646 218.82C888.51 222.763 886.073 227.403 884.678 232.163C883.29 237.036 882.825 242.147 883.057 247.133C883.402 252.005 884.332 256.885 885.727 261.525C888.63 270.806 893.153 279.396 898.381 287.289C903.721 295.176 909.879 302.372 916.382 309.223C919.63 312.588 922.997 315.835 926.484 318.968C929.593 321.975 932.907 324.777 936.322 327.565C934.628 330.287 932.389 332.882 929.965 335.1C927.175 337.536 924.16 339.627 920.905 341.253C919.982 341.712 919.165 342.063 918.354 342.409C917.544 342.76 916.614 343.106 915.797 343.338C914.867 343.69 914.057 344.035 913.127 344.267L910.457 344.964L909.181 345.31L907.786 345.542L905.116 345.894C903.256 346.126 901.403 346.239 899.543 346.358L899.424 346.471C898.965 346.471 898.613 346.704 898.381 347.168C898.148 347.865 898.381 348.562 899.078 348.908C910.676 354.391 923.422 357 936.269 357C937.57 357 938.879 356.973 940.181 356.914C947.268 356.568 954.349 355.526 961.204 353.435C968.052 351.344 974.555 348.562 980.706 344.964C986.863 341.366 992.668 337.191 998.009 332.431C1003.35 327.791 1008.22 322.798 1012.99 317.693C1022.51 307.364 1031.33 296.337 1038.42 284.036C1041.9 277.889 1045.04 271.39 1047.13 264.426C1048.29 260.941 1048.98 257.349 1049.57 253.751C1050.03 250.034 1050.14 246.323 1049.8 242.605C1049.45 238.782 1048.52 235.064 1047.01 231.585C1045.61 227.987 1043.53 224.734 1041.09 221.833C1038.65 218.932 1035.75 216.616 1032.73 214.412C1031.22 213.482 1029.59 212.433 1027.97 211.623C1027.16 211.159 1026.46 210.694 1025.65 210.349L1023.09 209.187C1021.46 208.371 1019.72 207.912 1018.1 207.215C1016.35 206.631 1014.61 206.167 1012.87 205.702C1009.75 205.104 1006.55 204.5 1003.34 204.5C1002.84 204.5 1002.34 204.514 1001.84 204.547C998.128 204.66 994.409 205.357 990.928 206.751C987.441 208.025 984.306 210.116 981.523 212.433C976.063 217.313 972.23 223.579 969.447 229.959C968.052 233.205 967.009 236.571 966.079 239.937C965.495 241.563 965.149 243.302 964.797 244.929C964.684 245.858 964.452 246.668 964.339 247.485L964.206 248.255L963.641 246.668C963.289 245.506 962.944 244.464 962.479 243.302C961.662 241.098 960.852 239.014 959.809 236.803C957.949 232.515 955.744 228.333 953.186 224.27C950.636 220.326 947.733 216.496 944.246 213.13C940.765 209.765 936.581 206.751 931.938 204.892C928.67 203.617 925.129 203 921.616 203Z" fill="#1A1A1A"/>
<path fill-rule="evenodd" clip-rule="evenodd" d="M394.428 156C374.862 156 355.086 161.892 338.869 174.436C293.149 209.585 292.329 267.177 316.485 297.678C300.519 312.178 281 321.615 281 321.615C295.92 327.577 308.967 329.831 320.186 329.831C333.178 329.831 343.702 326.803 351.838 322.984C365.829 329.8 379.984 333 393.53 333C440.625 333 480.31 294.274 479.998 233.936C479.717 184.702 437.603 156 394.428 156Z" fill="white"/>
<path fill-rule="evenodd" clip-rule="evenodd" d="M393.53 157.597C397.821 157.597 402.168 158.067 406.428 158.624C411.619 159.589 416.677 160.679 421.594 162.327C426.511 163.974 431.436 165.896 435.946 168.359C438.268 169.598 440.457 170.963 442.638 172.336C444.827 173.85 447.016 175.215 448.923 176.862C456.991 183.31 463.682 191.264 468.333 200.308C469.428 202.646 470.655 204.975 471.335 207.305C472.43 209.776 472.977 212.239 473.665 214.71C474.071 215.808 474.204 217.181 474.478 218.412C474.751 219.644 475.025 220.883 475.166 222.115C475.439 224.719 475.846 227.19 475.846 229.794C476.119 240.078 475.299 250.636 472.977 260.786C470.655 270.929 467.098 280.805 461.775 289.582C451.386 307.404 434.305 321.39 414.355 327.156C409.297 328.521 404.239 329.486 398.908 330.035C395.89 330.27 392.873 330.419 389.832 330.419C387.635 330.419 385.423 330.341 383.195 330.168C381.827 330.035 380.6 329.893 379.232 329.76C378.004 329.486 376.636 329.344 375.401 329.211C372.806 328.662 370.078 328.246 367.615 327.43C366.247 327.156 365.02 326.881 363.652 326.466L359.829 325.093C358.594 324.818 357.367 324.277 355.999 323.728L352.176 322.355C349.166 323.453 346.297 324.41 343.288 325.093C341.928 325.509 340.419 325.783 338.918 326.058C337.55 326.332 336.049 326.607 334.548 326.881C331.101 327.36 327.614 327.564 324.135 327.564C321.673 327.564 319.21 327.462 316.779 327.289C310.901 326.74 305.03 325.642 299.284 324.136C295.86 323.234 292.475 322.136 289.145 320.935C290.247 320.331 291.342 319.712 292.452 319.061C295.594 317.28 298.737 315.358 301.746 313.444C304.889 311.522 307.758 309.326 310.768 307.13C313.637 304.941 316.506 302.47 319.242 299.999C320.743 298.768 321.016 296.571 319.789 295.065L319.648 294.932C313.496 286.837 309.259 277.377 306.804 267.227C304.342 257.217 303.795 246.659 304.889 236.242C307.078 215.392 317.186 195.241 332.906 180.839C340.692 173.434 349.714 167.535 359.688 163.699C364.606 161.778 369.663 160.13 374.862 159.173C380.053 158.216 385.384 157.667 390.708 157.667C391.646 157.62 392.584 157.597 393.53 157.597ZM394.671 153L390.434 153.275C384.97 153.69 379.505 154.373 374.174 155.745C368.843 156.977 363.652 158.899 358.594 160.954L354.771 162.601C353.536 163.15 352.45 163.974 351.214 164.523C348.76 165.755 346.43 167.268 344.109 168.633C339.598 171.787 335.228 175.081 331.124 178.784C327.168 182.486 323.338 186.463 319.922 190.715C316.373 194.966 313.363 199.492 310.494 204.285C304.889 213.886 301.066 224.445 299.01 235.418C297.103 246.385 297.236 257.908 299.558 269.015C301.645 278.859 305.6 288.484 311.628 296.799C309.876 298.36 308.094 299.897 306.257 301.372C303.521 303.427 300.652 305.49 297.783 307.545C294.914 309.467 292.045 311.522 289.036 313.303C286.034 315.084 282.891 316.872 279.881 318.512H279.749C279.061 318.927 278.381 319.476 278.24 320.3C277.56 321.939 278.381 323.728 280.014 324.41C285.893 326.466 291.905 328.246 298.057 329.619C304.068 330.858 310.353 331.541 316.506 331.682C322.791 331.682 329.076 330.992 335.087 329.619C336.596 329.344 338.097 328.936 339.598 328.521C341.107 327.979 342.467 327.564 343.976 327.015C345.344 326.466 346.845 325.783 348.213 325.234C349.714 324.544 350.808 323.861 352.176 323.179L355.725 324.959C356.819 325.509 357.914 326.191 359.282 326.74L362.972 328.246C364.332 328.795 365.567 329.211 366.794 329.76C369.39 330.717 372.126 331.407 374.721 332.223C375.948 332.498 377.316 332.772 378.684 333.047C380.053 333.321 381.421 333.737 382.781 333.87C387.385 334.678 391.99 335 396.672 335C397.548 335 398.431 334.992 399.322 334.969C404.787 334.835 410.392 334.012 415.856 332.913C421.32 331.541 426.652 329.76 431.709 327.43C436.767 324.959 441.684 322.081 446.328 318.786C455.349 312.072 463.135 303.568 469.014 293.967C470.655 291.637 471.883 289.033 473.251 286.562L475.025 282.727C475.713 281.487 476.26 280.256 476.667 278.883L478.308 274.906C478.715 273.674 479.129 272.302 479.676 270.929C480.497 268.191 481.177 265.446 481.857 262.842C482.545 259.963 482.952 257.217 483.499 254.48L484.046 250.362C484.187 248.856 484.32 247.483 484.461 246.11C484.734 243.372 484.867 240.486 484.867 237.748L485 233.497L484.734 229.245C484.734 226.366 484.187 223.621 483.913 220.742C483.773 219.369 483.366 218.004 483.093 216.632C482.678 215.118 482.545 213.753 481.998 212.38C481.177 209.635 480.497 206.897 479.262 204.285C478.308 201.547 476.94 199.077 475.713 196.472C470.241 186.463 462.596 177.552 453.574 170.83C451.386 169.049 448.923 167.676 446.601 166.17C444.147 164.798 441.684 163.292 439.089 162.193C434.031 159.722 428.84 157.801 423.368 156.428C418.045 154.922 412.573 154.098 406.975 153.416C404.239 153.275 401.503 153 398.775 153H394.671Z" fill="#1A1A1A"/>
<path fill-rule="evenodd" clip-rule="evenodd" d="M371.89 369L391.355 417.34L289 421.834L296.078 526L606 505.172L599.327 407.946L434.637 415.299L371.89 369Z" fill="white"/>
<path fill-rule="evenodd" clip-rule="evenodd" d="M381.217 380.856L400.936 395.737C411.386 403.506 421.695 411.414 432.145 419.05C432.96 419.728 433.915 420.001 435.002 420.001C448.705 419.323 462.415 418.777 476.117 418.098L517.108 415.915L558.231 413.598L596.373 411.313L600.573 456.136L605.325 505.085C578.859 506.177 552.665 507.261 526.743 508.494C500.821 509.718 475.17 510.943 449.52 512.448C424.009 513.945 398.49 515.583 373.112 517.627L298.319 524.287L296.3 500.039L294.398 473.997L292.768 447.955L291.363 423.503L391.837 420.82C392.249 420.82 392.652 420.82 393.064 420.688C394.826 420.001 395.641 417.958 394.966 416.188V416.047C390.432 404.286 385.836 392.587 381.217 380.856ZM372.328 365C371.776 365 371.21 365.109 370.666 365.328C368.632 366.147 367.685 368.463 368.5 370.514C374.525 385.099 380.557 399.692 386.589 414.183L289.507 420.274C288.56 420.415 287.884 421.234 288.016 422.053L290.051 448.095L291.821 474.129L293.443 500.312L294.941 526.354C294.941 527.236 295.64 528 296.494 528C296.564 528 296.634 528 296.704 527.992H296.836L374.742 524.311C400.936 522.946 426.99 521.168 452.78 519.124C478.695 517.081 504.485 515.037 530.135 512.721C555.646 510.537 581.025 508.08 606 505.631L604.238 457.361L602.064 407.733C602.064 406.306 600.83 404.995 599.3 404.995C599.23 404.995 599.153 405.003 599.075 405.003H598.943L557.82 406.095L516.697 407.46L475.574 409.098C462.368 409.488 449.163 410.268 436.073 410.806C426.082 403.389 416.082 396.081 406.091 388.78L374.602 365.741C373.95 365.25 373.158 365 372.328 365Z" fill="#1A1A1A"/>
<path fill-rule="evenodd" clip-rule="evenodd" d="M675.289 191C652.991 191 628.252 197.481 604.134 211.901C537.51 251.517 588.95 300.977 588.95 300.977C588.95 300.977 585.91 299.451 582.211 299.451C578.512 299.451 574.161 300.977 571.541 307.057C565.064 321.944 589.698 344 607.287 344C611.734 344 615.733 342.593 618.668 339.297C633.329 322.988 618.668 310.301 618.668 310.294C635.814 315.893 652.227 318.404 667.345 318.404C724.266 318.404 762.924 282.89 753.617 243.104C746.107 211.004 714.464 191 675.289 191Z" fill="white"/>
<path fill-rule="evenodd" clip-rule="evenodd" d="M618.879 310.496C618.879 310.496 618.879 310.511 618.879 310.525L618.901 310.555C618.894 310.518 618.886 310.496 618.879 310.496ZM670.995 193.244C678.91 193.244 686.774 194.07 694.362 195.813C699.045 196.722 703.459 198.286 707.748 199.85C712.163 201.541 716.191 203.627 720.219 205.973C724.121 208.446 727.756 211.179 731.137 214.3C734.512 217.428 737.373 220.944 739.967 224.72C742.569 228.363 744.516 232.534 746.077 236.831C747.637 240.995 748.544 245.419 749.064 249.851C749.585 254.275 749.451 258.7 748.544 263.132C747.764 267.429 746.463 271.727 744.389 275.757C742.435 279.667 740.101 283.57 737.113 286.959C734.125 290.34 730.877 293.595 727.235 296.463C723.601 299.196 719.833 301.803 715.671 304.016C713.723 305.185 711.516 306.101 709.435 307.01C708.394 307.531 707.228 307.919 706.187 308.313C705.146 308.835 704.106 309.356 702.939 309.617C694.102 312.872 684.878 314.689 675.395 315.732C671.047 316.156 666.647 316.358 662.232 316.358C657.133 316.358 652.02 316.089 646.944 315.605C644.469 315.345 642.135 315.084 639.794 314.689C637.326 314.302 634.985 314.041 632.651 313.52C630.31 312.998 627.969 312.611 625.501 311.956C623.286 311.404 621.064 311.129 619.087 310.741C619.065 310.712 619.035 310.682 619.005 310.652L618.901 310.555C618.909 310.592 618.916 310.645 618.901 310.704C618.626 310.645 618.359 310.585 618.099 310.525C618.099 310.525 618.099 310.652 618.099 310.913C618.099 311.047 618.225 311.173 618.225 311.173L618.485 311.308C618.485 311.434 618.619 311.568 618.745 311.695C618.879 311.956 619.139 312.216 619.265 312.477C619.659 312.872 620.046 313.393 620.432 313.907C621.086 315.084 621.607 316.127 622.127 317.296C623.034 319.642 623.554 321.981 623.554 324.454C623.554 325.631 623.294 326.8 623.034 327.969C622.907 328.491 622.774 329.012 622.513 329.668L622.253 330.45L621.867 331.358L621.086 332.923C620.826 333.444 620.432 333.965 620.046 334.487C619.786 334.874 619.399 335.396 619.005 335.917L617.838 337.347C617.444 337.742 617.058 338.256 616.664 338.65C616.278 338.911 615.891 339.433 615.497 339.693C614.977 339.954 614.59 340.341 614.07 340.602C613.55 340.736 613.156 341.123 612.643 341.257C611.008 341.868 609.299 342.077 607.507 342.077C607.017 342.077 606.519 342.062 606.013 342.032C601.465 341.518 596.916 339.693 592.762 337.22C588.607 334.74 584.705 331.619 581.457 328.104C578.335 324.588 575.608 320.551 574.441 316.253C573.92 314.302 573.794 312.216 574.314 310.391C574.441 309.483 574.827 308.574 575.348 307.658C575.608 307.136 575.868 306.876 576.128 306.488C576.262 306.228 576.388 306.101 576.522 305.84L577.042 305.446C578.209 304.142 579.77 303.494 581.591 303.494C581.829 303.457 582.081 303.442 582.341 303.442C583.047 303.442 583.783 303.561 584.445 303.755C584.965 303.755 585.485 303.882 586.006 304.016C586.392 304.276 587.046 304.403 587.306 304.537C587.826 304.775 588.369 304.887 588.904 304.887C589.826 304.887 590.718 304.544 591.461 303.882C592.888 302.451 592.888 300.105 591.461 298.675C589.9 297.245 588.347 295.42 586.912 293.595C585.485 291.778 584.185 289.819 582.884 288.002C580.29 284.091 578.083 280.054 576.388 275.757C573.014 267.295 571.713 257.925 573.92 248.935C576.002 240.086 581.331 231.878 588.087 225.242C588.993 224.46 589.774 223.678 590.681 222.896L593.408 220.423C595.363 218.993 597.176 217.555 599.124 216.259C601.205 214.956 603.152 213.518 605.233 212.349C607.314 211.045 609.395 209.876 611.469 208.706C619.919 204.275 628.883 200.632 638.106 197.899C647.33 195.426 656.814 193.728 666.297 193.34C667.866 193.273 669.434 193.244 670.995 193.244ZM677.082 188L673.314 188.134C670.846 188.261 668.379 188.521 665.911 188.655C656.167 189.691 646.423 191.91 637.2 194.905C627.842 198.025 618.879 201.936 610.302 206.621C601.725 211.179 593.408 216.386 586.132 223.156L583.404 225.629C582.497 226.545 581.717 227.454 580.81 228.363L579.51 229.8L578.335 231.23C577.689 232.273 576.782 233.182 576.128 234.225C573.14 238.262 570.933 242.947 569.372 247.766C567.811 252.711 567.164 257.791 567.425 262.997C567.558 268.211 568.725 273.284 570.286 278.103C571.973 282.922 574.314 287.48 576.908 291.778C577.845 293.364 578.841 294.891 579.963 296.344C578.685 296.537 577.406 296.88 576.128 297.372C575.348 297.766 574.575 298.154 573.92 298.675C573.14 299.196 572.493 299.718 571.973 300.366L571.066 301.282C570.806 301.669 570.546 301.93 570.286 302.325C569.892 302.973 569.372 303.621 569.112 304.276C568.725 305.058 568.331 305.706 568.071 306.488C567.811 307.271 567.558 308.053 567.425 308.835C566.644 312.09 567.038 315.345 567.811 318.205C569.506 324.067 573.014 328.625 576.782 332.528C580.677 336.565 584.965 339.82 589.9 342.427C594.709 344.9 600.038 346.724 605.753 346.985C606.043 346.993 606.326 347 606.616 347C609.209 347 611.87 346.479 614.33 345.421C614.977 345.026 615.631 344.639 616.278 344.378C616.924 343.857 617.444 343.47 618.099 342.948C618.619 342.427 619.139 341.905 619.659 341.384C620.172 340.863 620.432 340.341 620.953 339.693L622.127 338.129C622.513 337.481 622.774 336.826 623.167 336.304C623.428 335.656 623.814 335.135 624.074 334.487L624.855 332.528L625.241 331.485L625.501 330.576C625.635 329.794 625.895 329.146 626.021 328.491C626.021 327.061 626.282 325.757 626.021 324.327C625.895 321.594 624.981 318.86 623.68 316.514C623.034 315.345 622.387 314.302 621.473 313.259C621.086 312.738 620.566 312.216 620.172 311.695C619.971 311.486 619.763 311.367 619.555 311.188C621.651 311.956 623.383 312.954 625.115 313.654C627.322 314.428 629.79 315.084 632.131 315.732C634.465 316.514 636.806 317.035 639.147 317.683C641.481 318.205 643.956 318.599 646.289 319.121C654.398 320.633 662.589 321.43 670.801 321.43C672.459 321.43 674.124 321.4 675.781 321.333C685.659 320.938 695.536 319.247 705.146 316.387C707.488 315.605 709.829 314.689 712.163 313.907C714.504 312.872 716.845 311.956 719.052 310.786C723.727 308.574 728.016 305.84 732.171 302.846C736.199 299.852 739.967 296.336 743.475 292.426C746.857 288.65 749.711 284.225 752.186 279.533C754.654 274.982 756.207 269.902 757.121 264.696C758.028 259.482 758.288 254.149 757.641 248.935C756.987 243.729 755.82 238.649 753.873 233.837C751.926 229.018 749.585 224.326 746.597 220.162C743.609 215.998 740.227 212.088 736.333 208.572C732.565 205.191 728.402 202.197 723.988 199.716C719.573 197.117 714.89 195.031 710.215 193.34C705.407 191.776 700.598 190.346 695.663 189.564C694.362 189.303 693.195 189.169 691.895 189.043L688.26 188.521C685.659 188.395 683.191 188.134 680.724 188.134L677.082 188Z" fill="#1A1A1A"/>
<path fill-rule="evenodd" clip-rule="evenodd" d="M689.1 3C687.885 5.23889 686.56 7.27954 685.142 9.41934C683.212 12.1713 681.073 14.8183 678.841 17.3663C674.371 22.363 669.186 26.8466 663.291 30.2107C657.095 33.5749 650.288 34.4903 643.58 34.7993C642.383 34.8401 641.185 34.8576 639.994 34.8576C635.088 34.8576 630.187 34.5136 625.287 33.779C625.897 38.4667 626.403 43.2593 626.607 47.947C626.915 53.2469 626.915 58.5468 626.2 63.8467C625.799 66.4937 625.287 69.2457 623.764 71.5895C622.241 73.9392 620.515 75.8749 618.579 77.7057C615.027 81.2739 611.063 84.3349 607 87.186C608.726 87.8973 610.348 88.8185 611.877 89.938C613.603 91.1624 615.126 92.5908 616.55 94.2175C619.294 97.3776 621.224 101.354 622.038 105.43C623.055 109.61 622.852 113.994 621.834 118.169C621.323 120.21 620.614 122.25 619.8 124.186C618.986 125.918 618.172 127.649 617.161 129.177C621.526 129.381 625.897 129.993 630.065 131.218C634.535 132.541 638.907 134.582 642.563 137.538C646.219 140.494 649.067 144.569 650.387 149.257C650.997 151.502 651.299 153.945 651.201 156.394C651.201 158.125 650.997 159.857 650.59 161.589C656.485 160.469 662.478 159.758 668.575 159.449C669.651 159.42 670.738 159.396 671.825 159.396C677.422 159.396 683.165 159.915 688.699 161.793C692.047 163.017 694.994 164.749 697.843 166.789C700.586 168.725 703.127 170.97 705.562 173.314C709.835 177.593 713.694 182.182 717.147 187.173C721.414 183.709 725.785 180.648 730.563 177.797C733.202 176.165 735.946 174.736 738.893 173.518C741.84 172.293 744.892 171.174 748.449 170.97C748.885 170.941 749.321 170.929 749.751 170.929C752.646 170.929 755.46 171.494 758.203 172.293C761.249 173.314 764.196 174.637 766.94 176.165C769.788 177.692 772.328 179.43 774.868 181.26C776.391 182.386 777.711 183.505 779.135 184.625C779.542 183.709 779.844 182.788 780.356 181.873C781.268 179.838 782.489 177.797 783.809 175.861C786.552 171.984 790.005 168.626 794.277 166.282C796.411 165.058 798.643 164.136 800.98 163.629C802.2 163.326 803.316 163.122 804.537 162.918C805.31 162.795 806.083 162.749 806.839 162.749C807.374 162.749 807.897 162.772 808.403 162.813C813.483 163.326 817.848 165.565 821.714 168.113C829.433 173.314 835.531 180.042 841.018 187.173C842.646 189.417 844.268 191.656 845.895 194C842.443 181.365 836.752 169.436 829.23 158.837C828.521 157.822 827.911 156.901 826.998 155.676C826.283 154.557 825.574 153.333 825.062 152.114C823.847 149.566 823.034 146.913 822.725 144.062C822.423 141.31 822.627 138.453 823.441 135.602C824.254 132.745 825.574 130.302 827.201 128.162C830.346 123.673 834.212 120.21 838.176 117.155C840.716 115.213 843.256 113.481 846 111.954C844.878 111.242 843.867 110.63 842.849 110.018C840.106 108.286 837.566 106.351 835.124 104.205C832.689 102.065 830.346 99.7215 828.317 96.9695C826.388 94.2175 824.76 91.1624 823.946 87.495C823.132 83.9268 823.441 80.3585 824.051 77.0935C824.661 73.8343 825.673 70.6741 826.893 67.7181C828.114 64.762 829.538 61.9109 831.16 59.159C831.77 57.9346 832.485 56.8151 833.09 55.6898C827.201 55.3867 821.307 54.7745 815.413 53.8591C811.652 53.1419 807.792 52.3315 803.927 51.2062C800.172 50.0868 796.306 48.5592 792.749 46.1104L791.429 45.0901L790.11 43.9706L788.994 42.7462L788.075 41.5277C786.756 39.7902 785.739 38.0585 784.721 36.222C782.896 32.6595 781.472 28.9863 780.251 25.2199C778.223 18.8997 776.694 12.5794 775.479 6.05514C769.178 8.80714 762.877 11.151 756.273 12.9876C748.548 15.1274 740.619 16.7599 732.388 16.9639C731.889 16.9756 731.389 16.9814 730.889 16.9814C727.302 16.9814 723.658 16.6549 720.094 15.9436C716.13 15.2265 712.171 14.0079 708.41 12.5794C704.65 11.2559 700.993 9.62339 697.331 7.68769C694.489 6.25922 691.745 4.73165 689.1 3Z" fill="white"/>
<path fill-rule="evenodd" clip-rule="evenodd" d="M689.608 7.66872C695.392 11.1382 701.473 14.0226 707.856 16.3742C711.515 17.689 715.371 18.8069 719.227 19.5135C723.188 20.2202 727.248 20.5271 731.209 20.5271C739.131 20.3244 746.948 19.0096 754.359 17.0866C760.567 15.4127 766.636 13.3218 772.566 10.8775C773.019 12.9395 773.501 14.9899 774.053 17.0866C774.866 20.4229 775.882 23.7649 776.997 27.1069C778.113 30.449 779.535 33.6867 781.162 36.9303C781.975 38.5521 782.887 40.0696 783.903 41.6856C784.106 41.9926 784.408 42.398 784.716 42.8035L785.123 43.4117L785.628 43.9156C786.238 44.7264 786.847 45.3346 787.457 45.9428V46.0412C787.556 46.0412 787.556 46.1455 787.661 46.1455L788.88 47.2576C788.979 47.3561 788.979 47.3561 789.078 47.4603C792.225 49.8872 795.884 51.6132 799.439 52.928C803.092 54.1444 806.745 55.1522 810.404 55.7604C816.328 56.913 822.322 57.5965 828.275 57.9729C826.195 61.7899 824.343 65.7517 822.891 69.9394C821.973 72.6732 821.264 75.5056 820.963 78.5464C820.556 81.483 820.556 84.6223 821.264 87.6574C821.973 90.6924 823.297 93.4263 824.918 95.9574C826.648 98.3901 828.576 100.719 830.603 102.641C834.222 106.076 838.2 108.995 842.353 111.538C839.635 113.282 837.038 115.176 834.564 117.324C831.416 119.954 828.472 122.891 826.038 126.233C824.819 127.953 823.704 129.777 822.891 131.7C821.973 133.623 821.369 135.755 821.166 137.881C820.655 142.028 821.264 146.285 822.891 150.229C823.704 152.152 824.616 153.977 825.835 155.697L829.285 160.661C831.62 164.003 833.653 167.443 835.581 170.89C838.212 175.992 840.477 181.31 842.3 186.8L841.365 185.468L839.64 183.238C837.41 180.302 834.872 177.469 832.334 174.735C829.692 172.1 826.852 169.471 823.907 167.241C820.858 164.912 817.507 162.891 813.749 161.57C811.926 160.863 809.997 160.458 807.965 160.157C806.948 160.053 805.932 160.053 804.921 160.053C803.905 160.157 802.889 160.354 801.977 160.458C798.016 161.066 794.258 162.584 790.907 164.709C785.094 168.347 780.685 173.762 777.689 179.682C773.861 176.595 769.796 173.826 765.324 171.596C760.41 169.146 755.009 167.264 749.114 167.264C748.435 167.264 747.744 167.293 747.047 167.345C743.8 167.646 740.652 168.66 737.806 169.772C734.966 170.988 732.225 172.303 729.687 173.82C725.331 176.375 721.196 179.219 717.212 182.283C713.791 177.857 710.01 173.67 705.928 169.772C703.494 167.548 700.852 165.422 698.11 163.597C695.27 161.773 692.221 160.157 688.975 159.039C683.701 157.394 678.224 156.954 672.928 156.954C671.696 156.954 670.483 156.977 669.275 157.018C663.211 157.388 657.316 158.188 651.514 159.334C652.153 155.286 651.84 151.133 650.492 147.293C648.872 142.839 645.927 139.091 642.373 136.259C638.72 133.421 634.451 131.602 630.188 130.287C626.018 129.123 621.749 128.422 617.388 128.277C619.374 124.97 620.89 121.39 621.761 117.626C622.574 114.591 622.882 111.451 622.574 108.312C622.272 105.173 621.459 102.138 620.141 99.2994C617.655 93.8781 613.293 89.4355 607.886 86.8175C611.806 84.1531 615.541 81.2166 619.02 77.9383C620.948 76.1137 622.679 74.1908 624.2 71.9608C625.821 69.7367 626.431 67.0028 626.942 64.4717C627.853 59.3051 627.958 54.0401 627.853 48.9778C627.772 44.6975 627.546 40.4171 627.127 36.1947C631.878 36.855 636.681 37.272 641.548 37.272C642.396 37.272 643.244 37.2605 644.098 37.2315C650.597 37.0288 657.502 36.1194 663.792 32.9801C669.884 29.8408 675.065 25.5894 679.636 20.7299C681.97 18.2972 684.102 15.766 686.03 13.1364C687.046 11.8216 687.958 10.4026 688.771 8.98352L689.608 7.66872ZM688.673 0C687.587 0 686.524 0.53866 685.926 1.59283L685.827 1.69129L683.492 5.54303C682.679 6.85781 681.866 8.17262 680.954 9.38896C679.125 11.9201 677.301 14.2485 675.164 16.5769C671.104 21.031 666.336 24.9812 661.155 27.9178C656.178 30.7501 650.091 31.868 643.895 32.3719C641.769 32.511 639.632 32.5805 637.494 32.5805C633.394 32.5805 629.282 32.3314 625.217 31.868H624.607C623.486 32.0708 622.777 32.9801 622.981 34.0922C623.794 39.056 624.299 44.1183 624.706 49.0821C625.013 54.1444 625.217 59.1024 624.607 64.0662C624.2 66.4931 623.689 68.8215 622.475 70.8487C621.256 72.9744 619.63 74.7989 617.905 76.6176C614.35 80.2667 610.494 83.5044 606.33 86.3426C606.231 86.441 606.126 86.5453 606.028 86.6437C605.923 86.9507 606.126 87.3562 606.434 87.4546C609.274 88.5667 611.812 90.287 614.048 92.3142C616.383 94.3414 618.207 96.8726 619.426 99.6064C620.745 102.34 621.558 105.375 621.866 108.416C622.168 111.451 621.866 114.486 621.151 117.527C620.239 121.373 618.613 125.022 616.482 128.463L616.383 128.561C616.383 128.764 616.586 128.966 616.79 128.966C621.256 129.071 625.623 129.777 629.886 131.092C634.149 132.511 638.209 134.434 641.56 137.168C645.01 140.006 647.548 143.649 648.872 147.802C650.19 151.851 650.091 156.305 649.075 160.458C648.971 160.557 648.971 160.759 648.971 160.962C649.063 161.425 649.58 161.889 650.132 161.889C650.184 161.889 650.237 161.883 650.289 161.877C656.585 160.863 662.985 160.255 669.275 160.255C675.57 160.255 681.97 160.759 687.656 162.891C693.139 165.016 698.11 169.065 702.478 173.316C706.944 177.672 710.905 182.63 714.459 187.692C714.459 187.797 714.558 187.797 714.558 187.895C715.086 188.538 715.876 188.874 716.666 188.874C717.253 188.874 717.839 188.689 718.316 188.301H718.414C722.886 184.756 727.556 181.518 732.527 178.784C734.966 177.365 737.4 176.05 739.944 175.037C742.482 173.925 745.02 173.218 747.558 172.911C748.063 172.87 748.58 172.847 749.109 172.847C751.095 172.847 753.186 173.143 755.27 173.623C757.809 174.226 760.451 175.239 762.885 176.456C765.423 177.568 767.862 178.987 770.197 180.609C772.531 182.126 774.663 183.846 776.997 185.567L777.102 185.671C777.305 185.874 777.509 185.972 777.811 186.076C778.06 186.158 778.322 186.198 778.583 186.198C779.576 186.198 780.558 185.601 780.958 184.553C783.398 178.078 787.457 172.002 793.143 168.156C795.983 166.331 799.236 164.912 802.685 164.304C803.498 164.101 804.312 163.8 805.125 163.8C805.525 163.748 805.961 163.725 806.391 163.725C806.82 163.725 807.256 163.748 807.663 163.8C809.283 163.899 811.008 164.304 812.634 164.814C815.886 165.821 819.133 167.646 822.078 169.673C825.022 171.695 827.763 174.127 830.4 176.658C833.043 179.091 835.476 181.819 837.817 184.657L839.542 186.887L841.162 189.013L844.182 193.143C844.188 193.183 844.199 193.224 844.211 193.264L844.252 193.247L844.414 193.467V193.566C844.664 193.815 844.984 194 845.315 194C845.384 194 845.46 193.988 845.529 193.971C846.139 193.768 846.441 193.16 846.343 192.656C844.107 184.756 841.063 177.162 837.207 169.974C835.273 166.43 833.246 162.891 830.911 159.549L827.456 154.585C826.341 152.963 825.429 151.243 824.714 149.424C823.396 145.879 822.786 141.929 823.396 138.083C823.802 134.336 825.632 130.791 827.967 127.756C830.4 124.617 833.246 121.883 836.394 119.45C839.437 116.919 842.788 114.793 846.238 112.766C846.441 112.668 846.645 112.465 846.749 112.262C847.254 111.451 846.952 110.542 846.238 110.032C841.47 107.2 837.004 103.956 833.246 100.012C829.488 96.1601 826.445 91.6076 825.429 86.6437C824.511 81.7842 825.632 76.4207 827.456 71.4569C829.285 66.3946 831.823 61.5351 834.768 56.8782C834.971 56.5713 835.174 56.1658 835.174 55.6619C835.273 54.2428 834.158 53.0265 832.839 53.0265H832.735C825.632 52.5226 818.424 51.7117 811.519 50.1942C808.063 49.4875 804.718 48.5724 801.466 47.4603C798.219 46.244 795.275 44.8249 792.737 42.6992L791.72 41.6856L791.819 41.8883C791.314 41.2859 790.808 40.6778 790.297 40.0696L789.891 39.6642L789.589 39.2587C789.386 38.9517 789.182 38.5521 788.979 38.2451C788.166 37.0288 787.353 35.6155 786.644 34.0922C785.221 31.2599 784.002 28.219 782.991 25.0855C781.975 21.9462 781.057 18.7026 780.25 15.4649C779.437 12.2213 778.722 8.98352 778.217 5.64149C778.113 5.43876 778.113 5.13756 778.014 4.93486C777.491 3.73589 776.301 3.04083 775.064 3.04083C774.622 3.04083 774.175 3.12772 773.751 3.31308H773.646C766.95 6.24964 759.841 8.68233 752.733 10.501C745.624 12.3256 738.416 13.5419 731.11 13.7446C727.654 13.7446 724.001 13.4376 720.552 12.8295C716.997 12.1228 713.542 11.2135 710.092 9.99713C703.291 7.56445 696.589 4.32669 690.398 0.480751C689.863 0.156375 689.265 0 688.673 0Z" fill="#1A1A1A"/>
<path fill-rule="evenodd" clip-rule="evenodd" d="M1090.05 369C1088.25 369 1086.44 369.09 1084.64 369.257C1080.87 369.626 1076.97 370.356 1073.32 371.574C1069.66 372.666 1066.38 374.488 1063.33 376.797C1060.29 379.232 1057.62 382.028 1055.18 385.186C1053.96 386.647 1052.87 388.226 1051.77 389.93L1048.73 394.917L1047.87 396.252L1046.65 395.522C1043.37 393.456 1039.96 391.752 1036.19 390.903C1034.73 390.563 1033.24 390.382 1031.76 390.382C1029.51 390.382 1027.28 390.806 1025.23 391.752C1023.53 392.482 1021.95 393.581 1020.49 394.917C1019.15 396.134 1017.93 397.595 1016.96 399.292C1014.89 402.575 1013.91 406.345 1013.91 410.24V410.964H1013.18C1006.97 411.451 1000.88 414.003 996.26 418.26C991.636 422.642 988.468 428.478 987.375 434.801C986.525 440.393 987.131 446.229 989.081 451.578C991.149 456.808 994.31 461.67 998.21 465.684L998.454 465.927V466.171C998.454 472.855 999.791 479.547 1002.23 485.744C1004.78 491.823 1008.92 497.179 1014.27 501.067C1014.89 501.554 1015.62 502.041 1016.34 502.403L1018.42 503.745C1019.87 504.476 1021.34 505.324 1022.8 505.929C1025.84 507.272 1029.01 508.12 1032.3 508.726C1034.77 509.303 1037.34 509.498 1039.91 509.498C1040.62 509.498 1041.32 509.484 1042.03 509.456C1045.2 509.338 1048.49 508.726 1051.53 507.877L1052.87 507.515L1053.6 508.607C1059.2 515.779 1067.11 520.884 1075.87 522.832C1078.55 523.423 1081.28 523.715 1084 523.715C1090.22 523.715 1096.42 522.22 1101.92 519.43L1104.24 518.331L1105.33 520.766C1107.52 525.385 1110.69 529.398 1114.58 532.681C1118.48 535.846 1123.11 538.273 1128.09 539.491C1131.92 540.423 1135.88 541 1139.77 541C1140.96 541 1142.14 540.944 1143.31 540.826C1148.3 540.339 1152.81 538.399 1154.87 534.629L1156.58 531.832L1159.38 533.773C1163.15 536.451 1167.53 538.399 1172.04 539.247C1173.61 539.546 1175.21 539.692 1176.79 539.692C1179.72 539.692 1182.62 539.185 1185.31 538.155C1187.38 537.3 1189.32 536.089 1191.15 534.747C1192.98 533.411 1194.68 531.832 1196.14 530.01C1199.18 526.484 1201.38 522.227 1202.96 517.845L1204.42 513.713L1208.07 516.147C1213.67 519.792 1219.88 522.714 1226.45 524.167C1229.62 524.898 1232.91 525.266 1236.19 525.266C1236.61 525.28 1237.03 525.287 1237.45 525.287C1240.31 525.287 1243.18 524.932 1246.05 524.292C1252.5 522.957 1258.59 520.161 1263.95 516.266C1269.18 512.252 1273.57 507.147 1276.61 501.429L1277.82 499.002L1280.5 499.489C1282.72 499.871 1284.99 500.059 1287.24 500.059C1292.9 500.059 1298.55 498.849 1303.51 496.324C1306.91 494.501 1310.08 492.192 1312.64 489.271C1313.97 487.935 1315.07 486.356 1316.05 484.777C1317.02 483.073 1317.87 481.369 1318.48 479.547C1321.04 472.368 1320.3 464.223 1316.77 457.414C1313.24 450.486 1307.04 445.137 1299.86 441.61L1296.33 439.906L1298.15 436.498C1300.83 431.518 1301.8 425.8 1300.95 420.451C1300.1 414.977 1297.18 410.115 1292.8 406.714C1288.54 403.187 1283.06 400.996 1277.33 400.148C1275.77 399.946 1274.21 399.848 1272.64 399.848C1268.45 399.848 1264.28 400.551 1260.29 401.97L1255.54 397.831C1255.54 398.019 1255.54 398.276 1255.54 398.443L1255.43 397.831L1255.18 396.496C1255.06 395.647 1254.69 394.792 1254.45 394.068C1254.33 393.581 1254.21 393.213 1253.96 392.726L1253.48 391.509C1253.11 390.785 1252.74 389.93 1252.38 389.199C1250.68 386.041 1248.48 383.245 1245.81 380.811C1240.57 375.824 1233.88 372.054 1226.82 370.231C1223.73 369.487 1220.64 369.118 1217.47 369.118C1217.02 369.118 1216.56 369.125 1216.1 369.139C1212.57 369.257 1208.92 369.988 1205.51 371.087C1198.58 373.396 1192.25 377.653 1187.25 383.002L1185.92 384.463L1183.97 383.85H1184.09C1184.45 383.85 1184.82 383.85 1185.07 383.732C1185.8 383.489 1186.03 383.002 1186.16 382.758L1181.41 383.976C1177.64 380.936 1173.74 378.14 1169.48 376.192C1165.35 374.126 1160.84 372.784 1156.22 372.422C1155.46 372.36 1154.69 372.332 1153.93 372.332C1150.17 372.332 1146.39 373.076 1142.95 374.488C1138.68 376.192 1134.79 378.988 1131.5 382.271L1129.8 383.85L1128.09 382.515C1121.89 377.896 1114.95 374.245 1107.52 371.935C1103.87 370.718 1100.1 369.869 1096.2 369.383C1094.18 369.118 1092.12 369 1090.05 369Z" fill="white"/>
<path fill-rule="evenodd" clip-rule="evenodd" d="M1184.87 379.768C1184.58 380.069 1184.3 380.369 1184.03 380.663C1183.78 380.467 1183.55 380.271 1183.31 380.083C1183.43 379.999 1183.56 379.971 1183.64 379.894C1183.89 379.768 1184.13 379.768 1184.37 379.768H1184.87ZM1182.97 380.467L1183.98 380.712C1183.69 381.012 1183.41 381.313 1183.16 381.599L1184.65 381.215L1184.12 382.934L1182.55 381.117C1182.64 380.935 1182.8 380.684 1182.97 380.467ZM1259.1 397.304C1259.79 397.772 1260.21 398.192 1260.07 398.192C1259.98 398.192 1259.71 398.045 1259.2 397.689L1259.1 397.304ZM1259.22 398.22C1259.22 398.269 1259.22 398.325 1259.22 398.464C1259.1 398.583 1259.1 398.954 1258.86 399.443L1258.69 399.471C1258.89 399.121 1259.07 398.709 1259.22 398.22ZM1089.41 372.318C1091.91 372.318 1094.38 372.478 1096.88 372.807C1100.78 373.415 1104.3 374.275 1107.94 375.617C1111.59 376.84 1114.99 378.426 1118.27 380.257C1119.97 381.236 1121.55 382.214 1123.13 383.312C1124.71 384.416 1126.17 385.632 1127.87 386.855C1128.52 387.351 1129.3 387.596 1130.09 387.596C1131.04 387.596 1131.99 387.226 1132.73 386.492C1134.55 384.779 1136.01 383.312 1137.83 381.97C1139.53 380.628 1141.35 379.524 1143.3 378.671C1146.6 376.959 1150.19 376.183 1153.89 376.183C1154.41 376.183 1154.93 376.197 1155.45 376.225C1159.59 376.469 1163.83 377.692 1167.73 379.649C1171.61 381.599 1175.38 384.171 1178.9 387.1C1179.61 387.638 1180.52 387.98 1181.48 387.98C1181.83 387.98 1182.19 387.932 1182.55 387.834L1183.02 387.715L1184.73 388.323C1185.1 388.414 1185.46 388.456 1185.84 388.456C1186.99 388.456 1188.16 388.022 1188.99 387.1C1190.2 385.877 1191.18 384.654 1192.39 383.682C1193.49 382.578 1194.7 381.599 1195.91 380.628C1198.47 378.79 1201.14 377.203 1203.93 375.98C1206.85 374.638 1209.76 373.785 1212.8 373.296C1214.43 373.031 1216.06 372.912 1217.69 372.912C1219.1 372.912 1220.51 373.003 1221.92 373.17C1228.11 373.904 1234.07 376.35 1239.17 380.013C1244.4 383.682 1248.28 388.197 1250.84 394.187L1250.72 393.942L1251.2 395.529C1251.44 396.018 1251.57 396.507 1251.57 396.752L1251.93 398.339L1252.17 399.198V399.562C1251.61 399.142 1251.33 398.982 1251.25 398.982C1251.08 398.982 1252.07 399.883 1253.44 400.533L1253.39 400.54L1258.13 404.692C1258.79 405.195 1259.64 405.53 1260.48 405.53C1260.87 405.53 1261.27 405.461 1261.65 405.307C1265.26 403.979 1269.12 403.294 1273 403.294C1274.48 403.294 1275.97 403.392 1277.44 403.594C1282.67 404.328 1287.77 406.404 1291.78 409.829C1295.55 413.246 1297.98 418.132 1298.23 423.269C1298.47 425.953 1298.1 428.644 1297.37 431.083C1297.01 432.432 1296.52 433.648 1296.04 434.871L1293.97 438.785V438.904C1293.37 440.246 1293.85 441.839 1295.19 442.447C1297.13 443.3 1299.07 444.279 1300.65 445.138C1302.48 446.117 1304.06 447.088 1305.63 448.311C1308.8 450.632 1311.59 453.323 1313.66 456.622C1315.72 459.795 1317.18 463.464 1317.78 467.371C1318.27 471.159 1318.03 475.192 1316.94 478.861C1314.75 486.312 1308.8 492.539 1301.75 495.964C1298.1 497.676 1294.21 498.648 1290.2 499.018C1289.23 499.137 1288.23 499.2 1287.23 499.2C1286.23 499.2 1285.22 499.137 1284.25 499.018C1282.18 498.892 1280.24 498.529 1278.17 498.165C1278.09 498.144 1278.01 498.13 1277.92 498.13C1277.49 498.13 1277.04 498.368 1276.84 498.773C1275.99 500.486 1275.26 502.072 1274.41 503.54C1273.44 505.008 1272.47 506.469 1271.37 507.936C1269.19 510.627 1266.75 513.192 1263.96 515.387C1258.49 519.664 1251.81 522.6 1244.88 523.823C1242.33 524.368 1239.71 524.647 1237.07 524.647C1236.2 524.647 1235.31 524.612 1234.43 524.557C1231.03 524.312 1227.51 523.578 1224.23 522.6C1220.82 521.621 1217.54 520.279 1214.5 518.567C1211.47 516.854 1208.55 514.779 1205.52 512.822C1205.39 512.703 1205.27 512.577 1205.15 512.577C1204.95 512.493 1204.75 512.458 1204.55 512.458C1203.88 512.458 1203.24 512.899 1202.96 513.556V513.681L1201.51 517.344C1201.14 518.567 1200.65 519.664 1200.05 520.887C1199.07 523.089 1197.74 525.283 1196.28 527.24C1193.36 531.273 1189.47 534.572 1185.22 536.284C1182.71 537.305 1180.13 537.794 1177.53 537.794C1175.48 537.794 1173.41 537.487 1171.37 536.893C1169.06 536.284 1166.87 535.425 1164.69 534.209C1163.72 533.594 1162.62 532.986 1161.65 532.252L1158.49 530.05C1158.49 529.931 1158.37 529.931 1158.37 529.931C1157.85 529.624 1157.29 529.477 1156.74 529.477C1155.75 529.477 1154.83 529.966 1154.36 530.91L1154.23 531.029L1153.27 532.741L1152.66 533.594C1152.54 533.964 1152.41 534.083 1152.3 534.209C1151.68 535.061 1151.08 535.669 1150.11 536.159C1148.4 537.263 1146.1 537.99 1143.79 538.234C1142.61 538.388 1141.4 538.458 1140.2 538.458C1136.45 538.458 1132.61 537.787 1128.84 536.774C1124.1 535.551 1119.73 533.104 1116.08 529.805C1114.26 528.093 1112.68 526.262 1111.22 524.186C1109.89 522.11 1108.92 520.035 1107.7 517.47L1107.58 517.344C1106.98 516.156 1105.86 515.492 1104.66 515.492C1104.13 515.492 1103.6 515.617 1103.08 515.876C1100.89 516.98 1099.07 517.959 1096.88 518.811C1094.95 519.545 1092.76 520.153 1090.57 520.524C1088.52 520.873 1086.42 521.055 1084.32 521.055C1082.05 521.055 1079.77 520.845 1077.57 520.398C1073.19 519.545 1069.06 517.833 1065.42 515.387C1063.47 514.289 1061.77 512.822 1060.19 511.361C1059.34 510.627 1058.61 509.767 1057.88 508.915C1057.03 508.062 1056.42 507.202 1055.69 506.224H1055.58C1055.03 505.497 1054.22 505.113 1053.39 505.113C1053.1 505.113 1052.82 505.155 1052.54 505.245C1049.74 506.105 1047.07 506.713 1044.39 507.084C1043.66 507.084 1042.93 507.202 1042.33 507.202H1040.26C1038.8 507.202 1037.47 507.202 1036.01 507.084C1034.68 506.958 1033.33 506.713 1032 506.35C1030.54 506.105 1029.21 505.735 1027.87 505.371C1027.26 505.127 1026.54 504.882 1025.92 504.763L1024.95 504.393C1024.59 504.148 1024.22 504.029 1023.86 503.903C1022.77 503.414 1021.43 502.806 1020.09 502.072L1020.21 502.191C1019.49 501.709 1018.63 501.22 1017.9 500.73C1017.17 500.241 1016.45 499.752 1015.72 499.263C1014.26 498.165 1012.93 497.061 1011.71 495.838C1009.28 493.273 1007.09 490.463 1005.51 487.29C1003.93 484.11 1002.84 480.567 1001.99 477.149C1001.14 473.605 1000.53 469.936 1000.53 466.274V466.148C1000.53 465.784 1000.29 465.54 1000.05 465.295C996.155 461.388 992.756 456.74 990.692 451.61C989.593 448.926 988.989 446.236 988.502 443.426C988.134 440.735 988.015 437.925 988.377 434.997C988.989 431.943 990.205 428.888 991.658 426.198C993.242 423.514 995.182 421.067 997.614 418.992C999.922 417.035 1002.6 415.448 1005.51 414.344C1008.3 413.246 1011.34 412.638 1014.5 412.513C1015.23 412.513 1015.84 411.905 1015.84 411.171V411.045C1015.84 407.264 1016.81 403.594 1018.76 400.421C1019.73 398.954 1020.82 397.486 1022.28 396.389C1023.62 395.165 1025.08 394.187 1026.77 393.579C1028.4 392.887 1030.14 392.579 1031.92 392.579C1033.61 392.579 1035.33 392.859 1036.98 393.334C1040.51 394.313 1043.79 396.144 1046.94 398.464H1047.07C1047.46 398.723 1047.9 398.842 1048.35 398.842C1049.16 398.842 1049.95 398.443 1050.35 397.73L1050.47 397.612L1053.63 392.475L1054.48 391.251L1055.33 390.154L1057.15 387.834C1059.46 384.779 1062.01 381.97 1064.93 379.524C1067.84 377.329 1071.01 375.491 1074.53 374.519C1078.17 373.296 1081.82 372.681 1085.58 372.437C1086.88 372.36 1088.15 372.318 1089.41 372.318ZM1217.72 365C1215.72 365 1213.7 365.154 1211.71 365.475C1207.94 365.964 1204.42 366.943 1200.89 368.404C1197.5 369.997 1194.22 371.828 1191.18 374.149C1189.72 375.246 1188.26 376.469 1186.92 377.692C1186.62 377.986 1186.33 378.286 1186.04 378.58C1185.85 378.594 1185.66 378.622 1185.46 378.671L1182.48 379.419C1179.07 376.728 1175.44 374.205 1171.37 372.318C1166.51 369.997 1161.41 368.404 1155.82 368.285C1155.21 368.257 1154.62 368.243 1154.01 368.243C1151.94 368.243 1149.87 368.425 1147.8 368.893C1145.12 369.382 1142.45 370.361 1140.02 371.584C1137.59 372.681 1135.28 374.149 1133.22 375.861C1132.05 376.756 1130.94 377.762 1129.87 378.755C1129.07 378.168 1128.24 377.602 1127.38 377.084C1125.68 375.861 1123.86 374.764 1122.04 373.785C1118.27 371.828 1114.39 370.116 1110.38 368.774C1106.37 367.432 1102.11 366.454 1097.98 365.964C1095.4 365.671 1092.78 365.503 1090.2 365.503C1088.52 365.503 1086.85 365.573 1085.22 365.72C1080.97 366.209 1076.6 367.062 1072.7 368.53C1068.57 369.871 1064.69 372.192 1061.28 375.002C1058 377.818 1055.21 380.991 1052.78 384.535L1050.95 387.1L1050.11 388.442L1049.38 389.665L1047.6 392.796C1044.77 391.147 1041.66 389.7 1038.32 388.931C1036.55 388.463 1034.67 388.19 1032.76 388.19C1030.21 388.19 1027.63 388.672 1025.19 389.791C1023.26 390.643 1021.31 391.985 1019.85 393.453C1018.27 394.921 1016.81 396.752 1015.84 398.583C1013.88 401.973 1013 405.957 1012.92 409.731C1010.1 410.087 1007.25 410.877 1004.66 412.023C1001.62 413.372 998.831 415.322 996.398 417.524C993.972 419.844 992.026 422.654 990.566 425.589C989.107 428.518 988.134 431.572 987.529 434.997C987.042 437.681 986.924 440.735 987.042 443.545C987.286 446.48 987.89 449.416 988.863 452.225C990.629 457.537 993.757 462.513 997.475 466.819C997.413 470.502 997.767 474.185 998.344 477.757C999.074 481.671 1000.17 485.333 1001.87 488.995C1003.45 492.665 1005.75 495.964 1008.43 498.892C1009.76 500.36 1011.22 501.828 1012.8 502.925C1013.53 503.54 1014.38 504.148 1015.23 504.763C1016.08 505.371 1016.81 505.86 1017.66 506.35H1017.79V506.469C1019 507.084 1020.34 507.936 1021.91 508.544C1022.28 508.789 1022.64 508.915 1022.89 509.034L1023.98 509.523C1024.71 509.767 1025.44 510.012 1026.29 510.382C1027.75 510.872 1029.21 511.235 1030.78 511.599C1032.24 511.969 1033.82 512.332 1035.41 512.458C1036.98 512.703 1038.56 512.822 1040.14 512.822C1040.87 512.948 1041.6 512.948 1042.45 512.948C1043.3 512.948 1044.03 512.822 1044.88 512.822C1047.34 512.535 1049.8 512.109 1052.14 511.522C1052.5 512.011 1052.87 512.493 1053.26 512.948C1054.12 513.926 1054.96 514.779 1055.94 515.757C1057.76 517.588 1059.82 519.175 1061.89 520.643C1066.27 523.578 1071.13 525.654 1076.23 526.751C1079.1 527.373 1082.01 527.681 1084.92 527.681C1087.17 527.681 1089.43 527.492 1091.66 527.122C1094.22 526.632 1096.77 526.017 1099.19 525.039C1100.47 524.592 1101.75 524.039 1102.97 523.48C1103.75 525.039 1104.63 526.653 1105.64 528.093C1107.34 530.539 1109.28 532.86 1111.47 534.817C1115.96 538.85 1121.43 541.778 1127.14 543.372C1131.21 544.35 1135.41 545 1139.69 545C1141.29 545 1142.9 544.909 1144.52 544.713C1147.55 544.224 1150.71 543.372 1153.51 541.533C1154.96 540.562 1156.31 539.339 1157.27 537.745C1157.49 537.424 1157.7 537.102 1157.84 536.781L1158.37 537.137C1159.59 537.871 1160.8 538.605 1162.14 539.213C1164.56 540.562 1167.36 541.533 1170.03 542.148C1172.17 542.659 1174.4 542.924 1176.62 542.924C1180.22 542.924 1183.82 542.239 1187.04 540.806C1192.27 538.36 1196.52 534.327 1199.68 529.805C1201.26 527.485 1202.47 525.039 1203.57 522.474C1204.06 521.258 1204.54 519.909 1205.03 518.686L1205.56 517.036C1207.98 518.588 1210.47 520.132 1213.04 521.376C1216.33 523.089 1219.85 524.431 1223.37 525.409C1227.69 526.583 1232.13 527.185 1236.57 527.185C1239.52 527.185 1242.46 526.919 1245.37 526.388C1252.66 524.92 1259.46 521.74 1265.42 517.225C1268.33 515.023 1270.88 512.332 1273.2 509.404C1274.41 507.936 1275.38 506.469 1276.35 504.882C1277.16 503.561 1277.88 502.156 1278.59 500.814C1280.36 501.199 1282.14 501.499 1284 501.709C1285.22 501.849 1286.47 501.905 1287.72 501.905C1288.59 501.905 1289.47 501.877 1290.32 501.828C1294.7 501.464 1298.96 500.486 1302.84 498.773C1306.85 496.942 1310.49 494.496 1313.53 491.323C1315.12 489.729 1316.45 488.024 1317.54 486.067C1318.76 484.11 1319.73 482.16 1320.46 480.077C1323.37 471.648 1322.04 461.996 1317.42 454.301C1315.23 450.387 1312.08 447.088 1308.67 444.404C1306.97 442.937 1305.15 441.714 1303.21 440.616C1302.17 440.029 1301.16 439.477 1300.17 438.953L1301.02 437.436C1301.75 435.975 1302.35 434.382 1302.84 432.795C1303.93 429.741 1304.3 426.323 1304.18 423.024C1304.06 419.726 1303.33 416.301 1301.87 413.246C1300.53 410.192 1298.47 407.383 1295.92 405.181C1291.05 400.666 1284.86 397.975 1278.42 396.878C1276.41 396.57 1274.4 396.423 1272.38 396.423C1268.62 396.423 1264.86 396.948 1261.21 397.975L1258.75 395.822L1258.61 395.165C1258.49 394.313 1258.24 393.698 1258.13 393.208L1257.52 391.496V391.377L1257.4 391.251C1256.91 389.91 1255.82 387.589 1254.96 386.247C1254 384.654 1253.03 383.067 1251.81 381.599C1249.38 378.545 1246.58 376.106 1243.54 373.904C1237.59 369.508 1230.55 366.454 1223.01 365.349C1221.29 365.119 1219.52 365 1217.72 365Z" fill="#1A1A1A"/>
<path fill-rule="evenodd" clip-rule="evenodd" d="M1258 399.047L1256.69 399.228L1256.65 399.244L1258 399.047ZM1253.35 399.741C1253.06 399.788 1252.64 399.855 1252 399.953L1253.31 399.772L1253.35 399.741ZM1254.46 399C1254.33 399 1254.2 399.036 1254.07 399.135C1253.86 399.228 1253.75 399.316 1253.64 399.497L1253.42 399.679L1253.35 399.741C1253.6 399.699 1253.75 399.679 1253.86 399.679H1253.96C1253.96 399.679 1253.96 399.772 1254.07 399.772V399.86L1255.06 399.777C1255.13 399.891 1255.29 400 1255.49 400C1255.62 400 1255.77 399.964 1255.93 399.86C1256.04 399.772 1256.25 399.591 1256.37 399.497L1256.47 399.316L1256.65 399.244L1256.15 399.316H1256.04C1256.04 399.316 1255.93 399.316 1255.93 399.228L1254.98 399.306L1255.16 399.772L1255.06 399.777C1255.06 399.777 1255.06 399.772 1255.06 399.772L1254.84 399.316L1254.98 399.306L1254.94 399.228C1254.88 399.114 1254.68 399 1254.46 399Z" fill="#1A1A1A"/>
<path fill-rule="evenodd" clip-rule="evenodd" d="M1231.11 202C1221.69 205.883 1212.28 209.903 1203 213.786C1203 234.401 1203.13 254.878 1203.13 275.493L1227 263.317C1227.41 263.064 1228.83 262.559 1229.82 262.559C1230.44 262.559 1230.89 262.75 1230.84 263.317C1229.51 277.369 1228.19 291.429 1227 305.352C1233.76 302.541 1240.65 299.593 1247.55 296.782C1247.8 296.698 1249.1 296.338 1249.99 296.338C1250.48 296.338 1250.86 296.445 1250.86 296.782L1248.21 334C1256.43 311.509 1264.78 288.887 1273 266.396C1263.85 268.532 1254.57 270.814 1245.42 273.089C1245.16 273.158 1244.46 273.318 1243.85 273.318C1243.23 273.318 1242.71 273.158 1242.77 272.553C1244.89 259.833 1247.02 247.113 1249.13 234.401C1241.44 236.805 1233.76 239.355 1225.93 241.76C1225.74 241.829 1225.04 241.997 1224.42 241.997C1223.81 241.997 1223.29 241.829 1223.42 241.224C1225.93 228.106 1228.45 215.118 1231.11 202Z" fill="white"/>
<path fill-rule="evenodd" clip-rule="evenodd" d="M1247.54 272.507C1247.55 272.636 1247.49 272.78 1247.49 272.871V272.742L1247.54 272.507ZM1229.7 204.606C1228.69 209.219 1227.65 213.832 1226.53 218.445L1222.68 234.739L1221.75 238.844L1221.49 239.897L1221.36 240.427C1221.36 240.692 1221.22 240.427 1221.22 241.488C1221.22 242.018 1221.36 242.685 1221.75 243.079C1222.15 243.609 1222.42 243.874 1222.81 244.139C1223.48 244.404 1224 244.533 1224.27 244.533C1224.67 244.601 1224.97 244.631 1225.23 244.631C1225.5 244.631 1225.73 244.601 1226 244.533H1226.8C1226.93 244.404 1227.06 244.404 1227.19 244.404L1227.46 244.268L1228.52 244.003L1230.51 243.472L1234.62 242.42C1238.07 241.465 1241.58 240.518 1245.11 239.534L1239.79 268.106L1239.39 270.227L1239.13 271.416V271.545C1239.13 271.681 1239.13 272.075 1239.13 272.34C1239.13 272.606 1239.13 272.742 1239.13 272.871C1239.13 273.136 1239.13 273.272 1239.26 273.537C1239.26 273.931 1239.39 274.333 1239.66 274.727C1239.92 275.12 1240.32 275.522 1240.59 275.787C1240.86 276.052 1241.12 276.317 1241.39 276.446C1241.91 276.711 1242.44 276.847 1242.71 276.976C1243.43 277.113 1243.94 277.143 1244.33 277.143C1244.73 277.143 1245.03 277.113 1245.36 277.113C1245.89 277.113 1246.42 276.976 1246.96 276.847L1249.07 276.317L1257.56 274.461L1266.62 272.272L1263.4 281.347C1261.28 286.907 1259.42 292.603 1257.56 298.3C1255.71 303.86 1253.85 309.556 1252.13 315.245L1250.76 319.782C1250.81 317.487 1250.84 315.207 1250.93 312.866C1251.07 309.556 1251.2 306.109 1251.33 302.799L1251.73 297.633V296.444C1251.73 296.307 1251.73 296.307 1251.73 296.05C1251.73 295.785 1251.6 295.52 1251.33 295.52C1251.07 295.254 1250.8 295.254 1250.54 295.254C1249.6 295.254 1248.81 295.383 1247.88 295.785C1244.44 297.103 1240.98 298.565 1237.54 299.883C1234.55 301.148 1231.46 302.208 1228.44 303.337C1230.01 291.77 1231.91 280.211 1233.69 268.765L1234.22 264.266L1234.35 263.607V263.341C1234.35 262.811 1234.35 262.41 1234.22 261.751C1233.82 260.425 1232.63 259.63 1231.83 259.365C1231.57 259.365 1231.3 259.236 1230.91 259.236C1230.77 259.236 1230.51 259.1 1230.24 259.1C1228.78 259.1 1227.99 259.365 1226.93 259.63C1226.66 259.766 1226.53 259.895 1226.13 260.031L1225.47 260.296L1224.41 260.819L1222.42 261.751C1220.95 262.41 1219.63 263.076 1218.31 263.735C1214.54 265.44 1210.89 267.258 1207.25 269.121C1207.19 266.023 1207.12 262.963 1207.03 259.895C1206.77 254.729 1206.63 249.699 1206.37 244.533C1205.86 234.807 1205.22 224.959 1204.94 215.104C1206.98 214.188 1208.94 213.271 1211.01 212.355L1218.04 209.446C1221.9 207.795 1225.77 206.234 1229.7 204.606ZM1231.55 201C1231.38 201 1231.2 201.038 1231.04 201.099C1226.39 203.091 1221.75 205.075 1216.98 207.06L1209.95 209.84C1207.56 210.9 1205.17 211.696 1202.92 212.62C1202.39 212.885 1202 213.415 1202 213.946V214.082C1201.73 224.278 1201.2 234.337 1200.8 244.533C1200.53 249.699 1200.4 254.729 1200.14 259.766C1200.14 264.925 1200 269.962 1200 275.12C1200 275.651 1200.14 276.181 1200.4 276.711C1201.05 278.006 1202.28 278.718 1203.59 278.718C1204.16 278.718 1204.74 278.582 1205.31 278.302C1210.74 275.651 1216.18 272.871 1221.49 270.091C1222.95 269.295 1224.27 268.636 1225.6 267.841L1227.95 266.538L1227.85 268.235C1227.46 280.286 1227.19 292.475 1226.53 304.655C1226.53 304.784 1226.53 304.92 1226.66 305.049C1226.76 305.337 1227.06 305.556 1227.37 305.556C1227.49 305.556 1227.61 305.518 1227.72 305.45C1231.17 303.988 1234.48 302.405 1237.93 300.943C1241.39 299.36 1244.83 297.898 1248.15 296.444C1248.94 296.307 1249.74 296.179 1250.54 296.05C1250.67 296.179 1250.8 296.179 1250.8 296.179C1250.8 296.232 1250.8 296.307 1250.8 296.307L1250.67 297.633L1250.27 302.67C1250.01 305.981 1249.6 309.42 1249.34 312.73C1248.94 316.176 1248.55 319.487 1248.15 322.797C1247.75 326.236 1247.22 329.546 1246.82 332.856C1246.69 333.652 1247.22 334.447 1247.88 334.848C1248.16 334.947 1248.43 335 1248.7 335C1249.45 335 1250.11 334.606 1250.4 333.917L1250.54 333.652L1257.7 317.366C1260.22 311.934 1262.47 306.374 1264.72 300.814C1266.98 295.383 1269.24 289.823 1271.35 284.263L1277.72 267.576C1277.99 266.78 1278.12 265.856 1277.86 264.925C1277.4 262.993 1275.57 261.637 1273.54 261.637C1273.21 261.637 1272.88 261.675 1272.55 261.751L1255.57 265.856L1248.3 267.674L1253.18 235.132V235.004C1253.32 234.474 1253.32 233.943 1253.06 233.277C1252.63 231.913 1251.29 230.959 1249.82 230.959C1249.44 230.959 1249.06 231.027 1248.68 231.163C1243.37 232.883 1238.06 234.739 1232.76 236.587L1228.78 237.912L1226.93 238.708L1226.83 238.731L1227.33 235.663L1229.98 219.112C1230.91 213.552 1231.83 208.12 1232.9 202.56C1232.9 202.295 1232.9 202.03 1232.76 201.894C1232.56 201.303 1232.06 201 1231.55 201Z" fill="#1A1A1A"/>
<path fill-rule="evenodd" clip-rule="evenodd" d="M1284.6 8C1283.36 8 1282.02 8.07576 1280.6 8.24995C1258.68 10.9009 1095.06 11.6962 1095.06 11.6962C1095.06 11.6962 1094.38 11.5826 1093.29 11.5826C1088.73 11.5826 1077 13.4837 1078.07 33.1462C1079.53 57.5047 1079.13 122.385 1079.13 122.385C1079.13 122.385 1078.37 137.783 1100.31 137.783C1100.94 137.783 1101.57 137.768 1102.23 137.745C1107.15 137.609 1117.51 137.215 1130.92 136.556C1126.8 150.849 1118.04 179.585 1112.46 187C1112.46 187 1154.03 162.505 1169.17 134.829C1222.03 132.451 1287.24 129.27 1298.26 127.679C1315.87 125.309 1313.94 103.056 1313.93 103.056L1303.18 24.6707C1303.18 24.6707 1302.59 8 1284.6 8Z" fill="white"/>
<path fill-rule="evenodd" clip-rule="evenodd" d="M1283.8 11.8411C1284.04 11.8411 1284.26 11.8714 1284.53 11.9395C1288.37 11.9395 1291.95 12.8629 1294.6 15.1108C1295.92 16.3066 1296.85 17.7598 1297.78 19.4779C1298.18 20.2726 1298.45 21.196 1298.71 22.127C1298.98 22.9217 1299.24 23.9737 1299.24 24.7684L1299.37 25.0333L1308.78 79.944L1311.03 93.7039L1312.09 100.584C1312.23 101.772 1312.49 102.832 1312.49 104.028C1312.62 105.08 1312.62 106.275 1312.49 107.335C1312.36 109.712 1312.09 111.959 1311.56 114.079C1310.9 116.327 1310.1 118.446 1308.78 120.3C1306.39 124.137 1302.15 126.65 1297.65 127.18C1292.34 127.839 1286.92 128.103 1281.48 128.368C1276.18 128.769 1270.75 128.898 1265.45 129.163C1254.72 129.693 1243.85 129.822 1233.11 130.086L1200.92 130.616L1184.75 130.881L1168.59 131.282C1167.53 131.282 1166.46 131.941 1165.8 132.872V133C1162.62 138.291 1158.78 143.324 1154.67 147.948C1150.43 152.581 1145.79 156.948 1141.15 161.186C1136.25 165.417 1131.35 169.383 1126.18 173.22C1124.17 174.704 1122.11 176.202 1120.04 177.693C1120.28 177.088 1120.52 176.475 1120.75 175.869C1122.21 171.502 1123.67 167.271 1124.99 162.904C1127.64 154.299 1130.03 145.572 1132.41 136.838C1132.41 136.573 1132.41 136.444 1132.41 136.179C1132.41 135.248 1131.48 134.59 1130.56 134.59C1123 135.12 1115.45 135.513 1107.89 135.914L1102.33 136.179C1102.02 136.217 1101.72 136.232 1101.41 136.232C1100.78 136.232 1100.17 136.179 1099.55 136.179C1099.09 136.24 1098.62 136.278 1098.16 136.278C1097.69 136.278 1097.23 136.24 1096.77 136.179C1093.19 135.914 1089.61 135.12 1086.56 133.265C1083.65 131.411 1081.39 128.505 1080.6 125.197C1080.33 124.266 1080.2 123.471 1080.2 122.677V119.899L1080.33 114.215L1080.6 91.5846C1080.86 76.5078 1081 61.4235 1081 46.3391C1081 42.5018 1081 38.7932 1080.86 34.9559C1080.74 32.9729 1080.86 31.2548 1080.86 29.5367C1080.86 28.6057 1081 27.811 1081.13 27.0239L1081.27 25.6994C1081.27 25.2982 1081.39 24.9047 1081.53 24.5035C1082.33 21.3323 1083.78 18.5545 1086.03 16.9651C1087.22 16.1704 1088.55 15.512 1090.01 15.2471L1091.07 15.1108L1092.26 14.9822H1093.32C1093.72 14.9822 1094.11 15.1108 1094.25 15.1108H1094.91C1112.93 15.2471 1130.95 15.2471 1149.11 15.2471C1167.13 15.2471 1185.29 15.2471 1203.3 14.9822C1212.44 14.8459 1221.46 14.7172 1230.47 14.4523C1239.61 14.1874 1248.62 13.9225 1257.63 13.6576C1262.14 13.3927 1266.78 13.2565 1271.28 12.8629L1274.72 12.7343L1278.17 12.3331C1279.36 12.2044 1280.56 12.0682 1281.48 12.0682L1283.07 11.9395C1283.34 11.8714 1283.57 11.8411 1283.8 11.8411ZM1282.81 4L1280.82 4.12867L1277.37 4.39357L1274.2 4.5298L1270.88 4.65847C1266.38 4.92337 1261.87 5.05962 1257.36 5.1883C1248.36 5.32452 1239.35 5.4532 1230.33 5.58942L1203.17 6.11167L1095.37 8.22331C1094.61 8.10222 1094.1 8.10222 1093.58 8.10222H1091.86L1090.14 8.36712L1088.42 8.63204C1086.3 9.29051 1084.05 10.3501 1082.19 11.6746C1081.27 12.4693 1080.33 13.2565 1079.67 14.1874C1079.27 14.581 1078.88 15.1108 1078.61 15.512L1077.69 17.0938C1077.16 18.0247 1076.76 19.0844 1076.36 20.144C1075.96 21.196 1075.83 22.2556 1075.57 23.1866C1075.57 23.7088 1075.44 24.2386 1075.3 24.7684L1075.17 26.3579C1075.17 27.4174 1074.91 28.4771 1075.04 29.4004C1075.04 31.3834 1075.17 33.5027 1075.3 35.2208C1075.57 38.9294 1075.83 42.7667 1075.96 46.4678C1076.76 61.5522 1077.02 76.6365 1077.42 91.5846L1077.69 114.215V119.899V122.813C1077.82 123.873 1077.95 124.796 1078.22 125.856C1078.75 127.839 1079.54 129.693 1080.86 131.282C1082.06 133 1083.65 134.325 1085.37 135.384C1088.82 137.496 1092.8 138.427 1096.64 138.821C1097.56 138.957 1098.62 138.957 1099.55 138.957H1102.47L1108.16 138.821C1114.85 138.586 1121.54 138.351 1128.22 138.306C1125.78 146.079 1123.11 153.754 1120.36 161.315C1118.89 165.546 1117.31 169.784 1115.58 173.75C1114.66 175.869 1113.73 177.852 1112.8 179.707C1111.87 181.69 1110.81 183.544 1109.75 184.997C1108.96 185.92 1108.83 187.381 1109.49 188.441C1110.03 189.432 1111.14 190 1112.25 190C1112.76 190 1113.27 189.879 1113.73 189.629H1113.86C1119.56 186.322 1124.99 182.749 1130.42 178.912C1135.73 175.075 1141.03 171.109 1145.93 166.741C1150.96 162.374 1155.87 157.871 1160.24 152.845C1164.1 148.266 1167.85 143.362 1170.99 138.026L1185.15 137.103L1201.18 135.914L1233.38 133.265C1244.11 132.342 1254.85 131.411 1265.58 130.616C1276.31 129.693 1287.05 129.163 1297.78 127.975C1302.42 127.445 1306.92 124.796 1309.57 120.83C1312.23 116.856 1313.42 112.096 1313.81 107.464C1313.95 106.275 1314.08 105.08 1313.95 103.891C1313.95 102.703 1313.81 101.507 1313.68 100.319L1312.89 93.439L1311.43 79.5504L1305.73 24.11V24.5035C1305.73 22.9217 1305.46 21.7258 1305.2 20.4013C1304.93 19.0844 1304.54 17.8885 1304.01 16.7002C1302.95 14.1874 1301.49 11.8033 1299.5 9.94899C1297.51 7.96599 1295.13 6.37657 1292.48 5.4532C1289.96 4.5298 1287.18 4.12867 1284.67 4H1282.81Z" fill="#1A1A1A"/>
<path fill-rule="evenodd" clip-rule="evenodd" d="M313.894 15C323.305 18.8532 332.717 22.8431 342 26.6963C342 47.1553 341.871 67.4775 341.871 87.9365L318.004 75.8526C317.595 75.6019 316.169 75.1002 315.176 75.1002C314.561 75.1002 314.106 75.2902 314.159 75.8526C315.486 89.7985 316.814 103.752 318.004 117.569C311.239 114.78 304.346 111.854 297.452 109.064C297.201 108.981 295.905 108.624 295.01 108.624C294.517 108.624 294.138 108.73 294.138 109.064L296.792 146C288.571 123.679 280.221 101.229 272 78.9078C281.146 81.0282 290.429 83.293 299.575 85.5502C299.841 85.6186 300.538 85.7782 301.153 85.7782C301.767 85.7782 302.29 85.6186 302.23 85.0182C300.106 72.3947 297.983 59.7712 295.867 47.1553C303.557 49.5417 311.239 52.0725 319.066 54.4589C319.263 54.5272 319.961 54.6944 320.575 54.6944C321.19 54.6944 321.713 54.5272 321.584 53.9269C319.066 40.9082 316.548 28.0187 313.894 15Z" fill="white"/>
<path fill-rule="evenodd" clip-rule="evenodd" d="M298.461 84.9734C298.453 85.1012 298.514 85.2441 298.514 85.3343V85.2065L298.461 84.9734ZM316.297 17.5787C317.314 22.1574 318.346 26.7361 319.469 31.3148L323.315 47.4868L324.248 51.5618L324.514 52.6068L324.643 53.1331C324.643 53.3963 324.78 53.1331 324.78 54.1857C324.78 54.712 324.643 55.3736 324.248 55.7646C323.846 56.2908 323.581 56.554 323.186 56.8171C322.519 57.0803 321.995 57.2081 321.73 57.2081C321.327 57.2757 321.032 57.3058 320.766 57.3058C320.501 57.3058 320.265 57.2757 320 57.2081H319.203C319.074 57.0803 318.938 57.0803 318.809 57.0803L318.543 56.9449L317.481 56.6818L315.493 56.1555L311.381 55.1104C307.929 54.1631 304.416 53.2233 300.888 52.2459L306.207 80.6052L306.609 82.7104L306.875 83.8908V84.0186C306.875 84.1539 306.875 84.5449 306.875 84.808C306.875 85.0712 306.875 85.2065 306.875 85.3343C306.875 85.5975 306.875 85.7328 306.738 85.9959C306.738 86.3869 306.609 86.7853 306.343 87.1763C306.078 87.5673 305.676 87.9657 305.41 88.2289C305.145 88.492 304.879 88.7552 304.614 88.883C304.09 89.1461 303.559 89.2814 303.294 89.4093C302.565 89.5446 302.064 89.5747 301.67 89.5747C301.268 89.5747 300.972 89.5446 300.638 89.5446C300.107 89.5446 299.576 89.4093 299.045 89.2814L296.928 88.7552L288.438 86.9132L279.38 84.7404L282.604 93.7474C284.721 99.2658 286.58 104.92 288.438 110.573C290.29 116.092 292.148 121.746 293.871 127.392L295.236 131.896C295.191 129.618 295.16 127.354 295.069 125.031C294.933 121.746 294.804 118.325 294.667 115.039L294.273 109.912V108.731C294.273 108.596 294.273 108.596 294.273 108.341C294.273 108.077 294.402 107.814 294.667 107.814C294.933 107.551 295.198 107.551 295.464 107.551C296.397 107.551 297.194 107.679 298.119 108.077C301.564 109.386 305.016 110.837 308.46 112.145C311.449 113.4 314.537 114.453 317.557 115.573C315.994 104.093 314.09 92.6196 312.307 81.2593L311.776 76.7934L311.647 76.1393V75.8762C311.647 75.3499 311.647 74.9514 311.776 74.2973C312.178 72.9816 313.369 72.1922 314.166 71.929C314.431 71.929 314.697 71.8012 315.091 71.8012C315.228 71.8012 315.493 71.6659 315.759 71.6659C317.215 71.6659 318.012 71.929 319.074 72.1922C319.34 72.3275 319.469 72.4553 319.871 72.5907L320.531 72.8538L321.593 73.3726L323.581 74.2973C325.045 74.9514 326.365 75.613 327.693 76.2672C331.464 77.9588 335.105 79.7632 338.755 81.6127C338.808 78.5377 338.884 75.5003 338.967 72.4553C339.233 67.3278 339.369 62.3356 339.635 57.2081C340.143 47.5545 340.78 37.7806 341.061 27.9992C339.02 27.0895 337.055 26.1797 334.991 25.27L327.958 22.383C324.097 20.744 320.235 19.1952 316.297 17.5787ZM314.454 14C314.621 14 314.795 14.0376 314.962 14.0977C319.605 16.0751 324.248 18.0449 329.021 20.0147L336.054 22.7739C338.436 23.8265 340.826 24.6159 343.079 25.5332C343.61 25.7963 344.005 26.3226 344.005 26.8489V26.9842C344.27 37.1039 344.801 47.0883 345.203 57.2081C345.469 62.3356 345.598 67.3278 345.863 72.3275C345.863 77.4475 346 82.4473 346 87.5673C346 88.0935 345.863 88.6198 345.598 89.1461C344.953 90.4318 343.724 91.1385 342.411 91.1385C341.842 91.1385 341.258 91.0032 340.689 90.725C335.257 88.0935 329.817 85.3343 324.514 82.5751C323.05 81.7856 321.73 81.1315 320.402 80.3421L318.05 79.0489L318.149 80.7331C318.543 92.6948 318.809 104.792 319.469 116.881C319.469 117.009 319.469 117.145 319.34 117.272C319.241 117.558 318.938 117.776 318.634 117.776C318.513 117.776 318.391 117.738 318.278 117.671C314.833 116.22 311.518 114.648 308.066 113.197C304.614 111.626 301.169 110.175 297.854 108.731C297.057 108.596 296.26 108.468 295.464 108.341C295.335 108.468 295.198 108.468 295.198 108.468C295.198 108.521 295.198 108.596 295.198 108.596L295.335 109.912L295.729 114.912C295.995 118.197 296.397 121.61 296.663 124.896C297.057 128.317 297.452 131.602 297.854 134.888C298.248 138.301 298.779 141.587 299.181 144.872C299.31 145.662 298.779 146.451 298.119 146.85C297.839 146.947 297.565 147 297.3 147C296.549 147 295.889 146.609 295.6 145.925L295.464 145.662L288.302 129.497C285.783 124.107 283.53 118.588 281.276 113.07C279.023 107.679 276.762 102.16 274.645 96.6419L268.28 80.0789C268.015 79.2895 267.878 78.3723 268.144 77.4475C268.599 75.5303 270.435 74.1846 272.46 74.1846C272.787 74.1846 273.121 74.2221 273.447 74.2973L290.426 78.3723L297.702 80.1767L292.816 47.8778V47.75C292.68 47.2237 292.68 46.6974 292.945 46.0358C293.37 44.6825 294.713 43.7352 296.177 43.7352C296.556 43.7352 296.943 43.8028 297.323 43.9381C302.626 45.6448 307.937 47.4868 313.24 49.3213L317.215 50.637L319.074 51.4264L319.173 51.449L318.672 48.404L316.024 31.9764C315.091 26.4579 314.166 21.0673 313.103 15.5488C313.103 15.2856 313.103 15.0225 313.24 14.8872C313.437 14.3007 313.938 14 314.454 14Z" fill="#1A1A1A"/>
<path fill-rule="evenodd" clip-rule="evenodd" d="M761.962 339L733.241 392.577L696.612 357.632L705.251 410.352H666.798L694.907 440.185L664 475.129L700.629 470.504V531.381L740.787 499.362L768.777 541L793.356 509.468L832.902 535.282V504.962L875.858 518.112L867.825 480.242L912 464.173L882.186 430.322L903.967 410.352L865.027 394.276L871.842 343.263L823.776 383.32L800.902 343.263L779.602 384.539L761.962 339Z" fill="white"/>
<path fill-rule="evenodd" clip-rule="evenodd" d="M760.967 348.29C765.797 360.903 770.642 373.516 775.563 386.129C775.925 387.107 776.538 387.834 777.512 388.323C778.083 388.616 778.703 388.756 779.315 388.756C780.777 388.756 782.218 387.959 782.983 386.492L800.754 351.547L820.223 385.395C820.342 385.64 820.467 385.758 820.585 386.003C821.33 386.813 822.367 387.254 823.418 387.254C824.26 387.254 825.11 386.967 825.82 386.373L867.09 351.456L861.834 394.067C861.591 395.408 862.322 396.631 863.54 397.12L899.471 411.347L880.573 429.249C879.849 429.976 879.723 431.199 880.454 431.933C890.102 442.554 899.749 453.175 909.3 464.006L889.218 471.511L867.069 479.575C866.582 479.819 866.22 480.308 866.338 480.916L870.354 499.853L873.807 516.756L854.533 510.6L833.121 503.759C832.996 503.64 832.753 503.64 832.634 503.64C831.534 503.64 830.685 504.493 830.685 505.471L830.268 531.5L794.789 507.427C794.26 507.085 793.647 506.917 793.049 506.917C792.137 506.917 791.239 507.302 790.654 508.035V508.154L778.118 523.792C774.951 527.81 771.791 531.828 768.623 535.853L757.187 518.782L743.196 498.022H743.078C743.078 497.896 743.078 497.896 742.952 497.777C742.326 497.002 741.372 496.596 740.405 496.596C739.681 496.596 738.95 496.82 738.33 497.288L718.374 513.409L703.207 525.756L702.921 501.439L702.552 470.903V470.777C702.552 470.777 702.552 470.658 702.434 470.533C702.323 469.456 701.453 468.66 700.415 468.66C700.276 468.66 700.137 468.674 699.998 468.702C689.055 470.225 678.211 471.748 667.373 473.356L680.041 458.318L694.889 440.36L669.628 411.962L685.638 412.269L704.863 412.633H705.232C706.325 412.388 707.056 411.41 706.938 410.194L703.04 383.683C702.135 377.73 701.285 371.727 700.415 365.739L730.541 395.164C730.785 395.408 731.029 395.534 731.272 395.779C731.794 396.037 732.351 396.163 732.901 396.163C734.133 396.163 735.303 395.534 735.894 394.43V394.311L750.498 367.562C754.006 361.134 757.507 354.712 760.967 348.29ZM761.51 335C760.111 335 758.718 335.741 758.043 337.019C753.296 346.061 748.549 354.978 743.927 364.02L731.906 387.107L698.174 355.467C697.666 354.957 696.907 354.705 696.176 354.705C696.03 354.705 695.884 354.712 695.738 354.733C694.158 354.978 693.065 356.445 693.308 358.031C694.889 366.948 696.469 375.619 698.049 384.417L702.364 408.405L685.638 408.727L666.412 409.09H666.294C666.05 409.09 665.681 409.216 665.438 409.579C664.957 410.068 664.957 410.921 665.438 411.41L694.158 440.486L662.396 474.446C662.152 474.809 661.909 475.179 662.034 475.662C662.145 476.444 662.765 477.024 663.524 477.024C663.593 477.024 663.663 477.017 663.739 477.01C675.155 475.871 686.577 474.634 697.903 473.384L697.568 501.439L697.2 531.975C697.2 532.59 697.443 533.198 697.93 533.813C698.487 534.581 699.33 534.994 700.2 534.994C700.84 534.994 701.494 534.763 702.065 534.295L722.39 518.419L739.674 504.744L751.591 522.695L765.589 543.463C765.832 543.826 766.076 544.071 766.312 544.315C766.925 544.776 767.663 545 768.394 545C769.41 545 770.426 544.56 771.06 543.707C775.201 538.453 779.211 533.079 783.352 527.824L793.8 514.087L831.298 537.838L831.416 537.963C831.778 538.208 832.147 538.327 832.634 538.327C833.971 538.208 834.945 537.23 834.945 535.888L834.5 508.014L853.683 513.535L875.22 519.886H875.832C876.563 519.761 876.925 519.027 876.807 518.419L872.665 499.364L868.865 481.426L889.949 473.712L912.091 465.893C912.216 465.767 912.334 465.648 912.46 465.648C913.065 465.159 913.184 464.307 912.703 463.692H912.578C903.139 452.812 893.812 441.82 884.492 430.829L905.158 412.144C905.402 412.025 905.52 411.655 905.645 411.41C906.132 410.194 905.645 408.846 904.545 408.356H904.427L867.751 392.613L874.858 343.742C874.976 342.763 874.733 341.785 874.127 341.051C873.438 340.22 872.47 339.78 871.496 339.78C870.758 339.78 870.013 340.038 869.38 340.562L824.476 377.709L803.914 341.177C803.552 340.562 803.065 339.954 802.334 339.584C801.756 339.297 801.144 339.158 800.531 339.158C799.077 339.158 797.664 339.954 796.981 341.422L779.823 374.781C774.951 362.322 770.064 349.877 765.101 337.509C764.858 336.656 764.127 335.922 763.271 335.433C762.721 335.14 762.115 335 761.51 335Z" fill="#1A1A1A"/>
<path fill-rule="evenodd" clip-rule="evenodd" d="M58.6072 494C52.4048 494 45.6457 492.09 38.3378 487.519C-7.30573 459.191 22.7103 395.57 76.9948 350.546C76.9948 350.546 65.6172 328.105 31.8923 326.469C31.8923 326.469 48.4921 318 72.5723 318C94.8177 318 123.446 325.225 151.29 353.012C209.409 410.888 225.169 465.485 174.586 487.245C166.376 490.791 159.147 492.301 152.788 492.301C115.926 492.301 108.25 441.54 108.25 441.54C108.25 441.54 91.0461 494 58.6072 494Z" fill="white"/>
<path fill-rule="evenodd" clip-rule="evenodd" d="M59.3431 491.768C62.2334 491.768 65.1394 491.279 67.9587 490.238C72.7784 488.715 77.1807 485.82 81.1734 482.373C85.308 478.925 88.7495 474.792 92.0492 470.516C95.2151 466.098 98.1053 461.413 100.862 456.585C102.24 454.242 103.342 451.757 104.579 449.28C105.264 448.034 105.815 446.795 106.367 445.557L107.193 443.624L107.611 442.796L107.886 442.243V441.967C107.886 441.967 108.02 441.833 108.162 441.691C108.296 441.557 108.438 441.557 108.438 441.415C108.572 441.557 108.847 441.833 108.847 441.967V442.243L108.981 442.519L109.123 443.348L109.532 444.862C109.808 445.833 110.084 446.795 110.359 447.757C110.911 449.69 111.604 451.623 112.289 453.556C113.667 457.413 115.321 461.137 117.108 464.726C120.826 471.755 125.645 478.373 131.835 483.067C134.867 485.41 138.167 487.342 141.75 488.439C145.333 489.685 149.185 490.096 152.902 490.096L155.792 489.962L158.548 489.543L160.06 489.267L161.438 488.991L164.187 488.305C166.116 487.619 167.904 487.201 169.7 486.372C171.487 485.686 173.417 484.992 175.063 484.029L177.685 482.791C178.512 482.373 179.331 481.82 180.158 481.268C181.954 480.448 183.466 479.201 184.978 478.097C188.01 475.754 190.9 473.277 193.239 470.374C195.444 467.479 197.366 464.308 198.744 460.86C199.988 457.413 200.673 453.832 201.083 450.108C201.358 446.519 201.083 442.661 200.673 438.938C199.988 435.215 199.161 431.349 197.917 427.626C195.578 420.321 192.136 413.15 188.285 406.255C180.3 392.458 170.527 379.497 159.785 367.499C154.414 361.432 148.775 355.508 142.987 350.128C137.072 344.748 130.733 339.92 123.991 335.787C117.242 331.645 110.084 328.064 102.649 325.445C95.0812 322.818 87.3713 321.169 79.3858 320.341C76.2593 320.072 73.1407 319.923 70.0142 319.923C65.1551 319.923 60.296 320.27 55.4291 321.027C51.4363 321.579 47.5853 322.407 43.5925 323.37C41.7261 323.906 39.8518 324.474 38.0168 325.105C38.1743 325.129 38.3397 325.145 38.4972 325.168L41.8048 325.855L43.5925 326.131L45.2463 326.541L48.5461 327.511C49.6486 327.787 50.6094 328.198 51.712 328.616C52.8145 329.026 53.917 329.302 54.8778 329.854C55.9804 330.407 57.0829 330.817 58.0437 331.369C62.0365 333.444 65.8954 336.063 69.3369 338.958C72.7784 342.129 75.9443 345.434 78.2832 349.576C78.5589 350.128 78.425 350.814 78.0076 351.232L77.8737 351.367C69.6125 358.537 61.7608 366.26 54.6022 374.669C47.5853 382.945 40.9779 391.772 35.4652 401.152C32.7167 405.837 30.1021 410.531 28.0309 415.493C25.8337 420.455 23.7625 425.425 22.3922 430.521C21.0141 435.625 20.0454 440.863 19.7776 445.967C19.502 451.213 19.9115 456.309 21.2897 461.137C23.9043 470.926 30.6534 479.201 39.3241 484.992C43.5925 487.895 48.2705 490.096 53.224 491.066C55.2322 491.523 57.2798 491.768 59.3431 491.768ZM57.7838 498C55.878 498 53.9801 497.85 52.1294 497.542C46.0654 496.438 40.5605 493.961 35.607 490.924C30.6534 487.895 25.9676 483.895 22.2505 479.201C18.5333 474.516 15.6431 469.001 13.9893 463.345C12.3434 457.555 11.7921 451.481 12.0677 445.557C12.4772 439.766 13.5798 433.968 15.2336 428.454C18.6751 417.426 24.0382 407.218 30.236 397.838C36.5678 388.467 43.8682 379.915 51.5781 371.774C55.4291 367.775 59.4219 363.917 63.5564 360.194C67.2421 356.62 71.1718 353.291 75.2197 349.978C73.2115 346.744 70.5576 343.659 67.6831 341.025C64.3754 338.129 60.8001 335.645 56.9412 333.712C55.8465 333.168 54.8778 332.749 53.917 332.339C52.9563 331.921 51.8537 331.511 50.8851 331.235C49.7825 330.817 48.8217 330.407 47.7192 330.13L44.5533 329.302L43.0413 328.892L41.3875 328.616L38.2216 328.198C36.0165 327.922 33.8193 327.787 31.6142 327.645L31.4724 327.511C30.9291 327.511 30.5117 327.235 30.236 326.683C29.9604 325.855 30.236 325.026 31.0629 324.616C44.8132 318.1 59.9259 315 75.1567 315C76.7003 315 78.2517 315.032 79.7953 315.103C88.1982 315.513 96.5933 316.751 104.721 319.236C112.84 321.721 120.55 325.026 127.842 329.302C135.143 333.578 142.026 338.54 148.358 344.196C154.689 349.71 160.47 355.642 166.116 361.708C177.41 373.983 187.868 387.086 196.271 401.704C200.398 409.009 204.115 416.732 206.595 425.007C207.974 429.148 208.793 433.416 209.486 437.692C210.037 442.109 210.171 446.519 209.761 450.937C209.344 455.48 208.241 459.898 206.454 464.032C204.8 468.307 202.327 472.173 199.437 475.62C196.547 479.067 193.105 481.82 189.522 484.439C187.734 485.544 185.805 486.79 183.875 487.753C182.914 488.305 182.088 488.857 181.127 489.267L178.095 490.648C176.165 491.618 174.102 492.162 172.173 492.991C170.109 493.685 168.046 494.237 165.983 494.789C162.281 495.499 158.485 496.217 154.674 496.217C154.083 496.217 153.492 496.201 152.902 496.162C148.499 496.028 144.089 495.2 139.963 493.543C135.828 492.028 132.111 489.543 128.811 486.79C122.338 480.992 117.794 473.545 114.494 465.964C112.84 462.107 111.604 458.107 110.501 454.108C109.808 452.175 109.399 450.108 108.981 448.176C108.847 447.071 108.572 446.109 108.438 445.138L108.28 444.223L107.611 446.109C107.193 447.489 106.784 448.728 106.233 450.108C105.264 452.727 104.303 455.204 103.067 457.831C100.862 462.927 98.2471 467.897 95.2151 472.725C92.191 477.411 88.7495 481.962 84.615 485.962C80.4883 489.962 75.5269 493.543 70.022 495.752C66.1474 497.266 61.9499 498 57.7838 498Z" fill="#1A1A1A"/>
</svg>
